<svg width="500" height="500" viewBox="0 0 500 500" fill="none" xmlns="http://www.w3.org/2000/svg">
<path d="M288.398 392.001C288.398 392.001 366.258 395.641 415.508 307.651C464.758 219.661 406.808 138.721 317.288 121.231C227.768 103.741 183.168 38.0705 103.378 88.3405C23.5884 138.611 67.9284 406.331 288.398 392.001Z" fill="#407BFF"/>
<path opacity="0.4" d="M288.398 392.001C288.398 392.001 366.258 395.641 415.508 307.651C464.758 219.661 406.808 138.721 317.288 121.231C227.768 103.741 183.168 38.0705 103.378 88.3405C23.5884 138.611 67.9284 406.331 288.398 392.001Z" fill="white"/>
<path d="M250.01 431.221C353.619 431.221 437.61 426.014 437.61 419.591C437.61 413.168 353.619 407.961 250.01 407.961C146.402 407.961 62.4102 413.168 62.4102 419.591C62.4102 426.014 146.402 431.221 250.01 431.221Z" fill="#407BFF"/>
<path opacity="0.7" d="M250.01 431.221C353.619 431.221 437.61 426.014 437.61 419.591C437.61 413.168 353.619 407.961 250.01 407.961C146.402 407.961 62.4102 413.168 62.4102 419.591C62.4102 426.014 146.402 431.221 250.01 431.221Z" fill="white"/>
<path d="M291.079 113.242L290.539 117.822L293.019 118.702C293.055 120.272 293.273 121.832 293.669 123.352L291.519 124.912L293.329 129.162L295.939 128.672C296.752 130.013 297.719 131.254 298.819 132.372L297.729 134.812L301.429 137.572L303.429 135.872C304.804 136.629 306.264 137.22 307.779 137.632L308.059 140.282L312.629 140.832L313.519 138.342C315.089 138.306 316.649 138.088 318.169 137.692L319.739 139.832L323.999 138.002L323.529 135.402C324.866 134.588 326.105 133.621 327.219 132.522L329.659 133.612L332.419 129.912L330.709 127.912C331.468 126.541 332.059 125.084 332.469 123.572L335.119 123.292L335.669 118.712L333.179 117.822C333.148 116.255 332.93 114.697 332.529 113.182L334.689 111.612L332.869 107.362L330.269 107.842C329.452 106.504 328.482 105.266 327.379 104.152L328.459 101.722L324.729 99.0017L322.729 100.712C321.361 99.9627 319.911 99.3723 318.409 98.9517L318.129 96.3017L313.549 95.7617L312.659 98.2417C311.092 98.2804 309.535 98.5019 308.019 98.9017L306.449 96.7517L302.199 98.5617L302.679 101.162C301.347 101.964 300.112 102.917 298.999 104.002L296.569 102.922L293.799 106.622L295.509 108.622C294.752 109.997 294.161 111.457 293.749 112.972L291.079 113.242ZM301.709 116.912C301.977 114.66 302.907 112.538 304.381 110.815C305.855 109.092 307.807 107.845 309.991 107.232C312.174 106.619 314.49 106.667 316.646 107.371C318.802 108.075 320.7 109.403 322.101 111.186C323.502 112.969 324.342 115.128 324.515 117.389C324.689 119.65 324.187 121.912 323.075 123.888C321.962 125.864 320.288 127.465 318.265 128.489C316.242 129.514 313.96 129.915 311.709 129.642C308.696 129.276 305.952 127.731 304.077 125.344C302.202 122.958 301.351 119.925 301.709 116.912Z" stroke="#263238" stroke-width="1.57112" stroke-linejoin="round"/>
<path d="M171.611 225.943L171.121 230.092L173.371 230.893C173.403 232.314 173.601 233.727 173.961 235.103L171.961 236.523L173.601 240.372L175.961 239.923C176.7 241.136 177.575 242.26 178.571 243.273L177.571 245.482L181.001 248.003L182.811 246.452C184.055 247.142 185.378 247.679 186.751 248.053L187.001 250.452L191.151 250.952L191.951 248.693C193.373 248.663 194.786 248.465 196.161 248.103L197.581 250.053L201.421 248.402L201.001 246.003C202.214 245.264 203.338 244.388 204.351 243.393L206.561 244.393L209.061 241.053L207.511 239.223C208.198 237.98 208.735 236.661 209.111 235.292L211.511 235.033L212.001 230.883L209.751 230.083C209.72 228.661 209.522 227.248 209.161 225.872L211.161 224.452L209.511 220.603L207.161 221.033C206.415 219.825 205.533 218.708 204.531 217.702L205.531 215.493L202.101 213.003L200.281 214.553C199.042 213.869 197.726 213.335 196.361 212.963L196.111 210.562L191.961 210.062L191.161 212.323C189.739 212.353 188.326 212.551 186.951 212.913L185.531 211.003L181.681 212.643L182.111 215.003C180.897 215.74 179.773 216.616 178.761 217.613L176.551 216.613L174.051 219.963L175.601 221.783C174.916 223.029 174.379 224.351 174.001 225.723L171.611 225.943ZM181.241 229.262C181.485 227.224 182.327 225.304 183.662 223.745C184.997 222.185 186.765 221.057 188.741 220.502C190.717 219.947 192.814 219.99 194.765 220.626C196.717 221.263 198.436 222.463 199.705 224.077C200.975 225.69 201.737 227.643 201.896 229.69C202.056 231.736 201.605 233.784 200.6 235.574C199.596 237.364 198.083 238.817 196.254 239.747C194.424 240.678 192.359 241.045 190.321 240.803C187.587 240.475 185.096 239.075 183.393 236.911C181.691 234.748 180.917 231.997 181.241 229.262Z" fill="#263238"/>
<path d="M383.081 327.749V318.339L377.831 317.149C377.386 313.977 376.567 310.868 375.391 307.889L379.391 304.199L374.671 295.999L369.511 297.629C367.535 295.112 365.273 292.833 362.771 290.839L364.401 285.629L356.231 280.919L352.581 284.849C349.611 283.65 346.509 282.808 343.341 282.339L342.141 277.039H332.731L331.531 282.299C328.358 282.74 325.249 283.559 322.271 284.739L318.581 280.739L310.431 285.439L312.021 290.599C309.504 292.571 307.225 294.83 305.231 297.329L300.031 295.719L295.331 303.859L299.271 307.529C298.073 310.496 297.231 313.594 296.761 316.759L291.461 317.969V327.379L296.711 328.579C297.162 331.747 297.98 334.851 299.151 337.829L295.151 341.529L299.861 349.699L305.011 348.109C306.992 350.62 309.26 352.888 311.771 354.869L310.161 360.079L318.341 364.789L321.991 360.789C324.944 361.99 328.029 362.836 331.181 363.309L332.381 368.609H341.801L342.991 363.359C346.166 362.903 349.277 362.077 352.261 360.899L355.951 364.899L364.121 360.189L362.531 355.039C365.05 353.07 367.329 350.811 369.321 348.309L374.521 349.919L379.231 341.739L375.281 338.079C376.479 335.108 377.324 332.007 377.801 328.839L383.081 327.749ZM366.811 322.889C366.811 328.732 365.078 334.443 361.833 339.301C358.587 344.158 353.973 347.945 348.575 350.18C343.178 352.416 337.238 353.001 331.508 351.861C325.778 350.722 320.514 347.908 316.383 343.777C312.252 339.646 309.438 334.382 308.299 328.652C307.159 322.922 307.744 316.982 309.98 311.585C312.215 306.187 316.002 301.573 320.859 298.327C325.717 295.082 331.428 293.349 337.271 293.349C345.105 293.349 352.619 296.461 358.159 302.001C363.699 307.541 366.811 315.055 366.811 322.889Z" fill="white"/>
<path d="M219.58 94.1523H195.34V99.7423H219.58V94.1523Z" fill="#407BFF"/>
<path d="M211.27 102.23H195.34V107.82H211.27V102.23Z" fill="#407BFF"/>
<path d="M204.51 110.312H195.34V115.903H204.51V110.312Z" fill="#407BFF"/>
<path opacity="0.2" d="M219.58 94.1523H195.34V99.7423H219.58V94.1523Z" fill="black"/>
<path opacity="0.2" d="M211.27 102.23H195.34V107.82H211.27V102.23Z" fill="black"/>
<path opacity="0.2" d="M204.51 110.312H195.34V115.903H204.51V110.312Z" fill="black"/>
<path d="M161.47 156.07H153.25V172.91H161.47V156.07Z" fill="#407BFF"/>
<path d="M173.341 161.859H165.121V172.919H173.341V161.859Z" fill="#407BFF"/>
<path d="M185.22 166.551H177V172.921H185.22V166.551Z" fill="#407BFF"/>
<path opacity="0.2" d="M161.47 156.07H153.25V172.91H161.47V156.07Z" fill="black"/>
<path opacity="0.2" d="M173.341 161.859H165.121V172.919H173.341V161.859Z" fill="black"/>
<path opacity="0.2" d="M185.22 166.551H177V172.921H185.22V166.551Z" fill="black"/>
<path d="M250.94 185.661H151.41C150.044 185.664 148.691 185.397 147.428 184.876C146.165 184.355 145.017 183.59 144.05 182.625C143.083 181.66 142.316 180.514 141.793 179.252C141.269 177.99 141 176.637 141 175.271V93.1009C141.005 90.347 142.102 87.7073 144.049 85.7599C145.996 83.8126 148.636 82.7162 151.39 82.7109H250.92C252.286 82.7096 253.638 82.9773 254.901 83.4988C256.163 84.0202 257.31 84.7852 258.277 85.75C259.244 86.7148 260.011 87.8605 260.535 89.1218C261.058 90.3831 261.329 91.7352 261.33 93.1009V175.271C261.33 178.027 260.235 180.669 258.287 182.618C256.338 184.566 253.696 185.661 250.94 185.661ZM151.41 83.6609C148.897 83.6662 146.489 84.6667 144.712 86.4434C142.936 88.2201 141.935 90.6283 141.93 93.1409V175.311C141.935 177.824 142.936 180.232 144.712 182.008C146.489 183.785 148.897 184.786 151.41 184.791H250.94C253.453 184.786 255.861 183.785 257.638 182.008C259.414 180.232 260.415 177.824 260.42 175.311V93.1009C260.415 90.5883 259.414 88.1801 257.638 86.4034C255.861 84.6267 253.453 83.6262 250.94 83.6209L151.41 83.6609Z" fill="#263238"/>
<path d="M249.662 156.531H214.172V157.441H249.662V156.531Z" fill="#263238"/>
<path d="M249.662 160.34H214.172V161.25H249.662V160.34Z" fill="#263238"/>
<path d="M249.662 164.141H214.172V165.051H249.662V164.141Z" fill="#263238"/>
<path d="M249.662 167.941H214.172V168.851H249.662V167.941Z" fill="#263238"/>
<path d="M249.662 171.742H214.172V172.652H249.662V171.742Z" fill="#263238"/>
<path d="M187.65 94.5312H152.16V95.4413H187.65V94.5312Z" fill="#263238"/>
<path d="M187.65 98.332H152.16V99.242H187.65V98.332Z" fill="#263238"/>
<path d="M187.65 102.133H152.16V103.043H187.65V102.133Z" fill="#263238"/>
<path d="M187.65 105.93H152.16V106.84H187.65V105.93Z" fill="#263238"/>
<path d="M187.65 109.73H152.16V110.64H187.65V109.73Z" fill="#263238"/>
<path d="M242.652 125.233L249.012 128.573L248.282 110.633L233.112 120.233L239.472 123.563L234.682 132.673C233.838 132.672 233.017 132.953 232.352 133.473L223.902 129.563V129.513C223.938 128.493 223.572 127.501 222.882 126.749C222.191 125.998 221.233 125.549 220.214 125.499C219.196 125.449 218.198 125.802 217.438 126.483C216.677 127.163 216.215 128.115 216.152 129.133C216.142 129.259 216.142 129.386 216.152 129.513C216.157 130.068 216.276 130.616 216.502 131.123L205.502 143.123C205.149 143.012 204.782 142.955 204.412 142.953C204.22 142.953 204.029 142.973 203.842 143.013L188.002 122.903C188.364 121.973 188.353 120.939 187.971 120.017C187.589 119.096 186.865 118.357 185.952 117.956C185.038 117.555 184.005 117.522 183.068 117.864C182.131 118.206 181.362 118.897 180.922 119.793C180.703 120.277 180.59 120.802 180.592 121.333C180.604 121.73 180.671 122.124 180.792 122.503L162.742 141.003C162.024 140.744 161.245 140.703 160.504 140.885C159.763 141.068 159.092 141.465 158.576 142.028C158.06 142.59 157.722 143.293 157.605 144.047C157.487 144.801 157.595 145.573 157.915 146.266C158.236 146.959 158.753 147.542 159.404 147.941C160.054 148.341 160.809 148.539 161.571 148.511C162.334 148.482 163.072 148.229 163.691 147.783C164.31 147.337 164.784 146.717 165.052 146.003C165.203 145.576 165.281 145.126 165.282 144.673C165.283 144.355 165.239 144.038 165.152 143.733L183.402 125.003C183.76 125.122 184.135 125.183 184.512 125.183C184.75 125.184 184.988 125.161 185.222 125.113L200.972 145.113C200.477 146.025 200.365 147.097 200.661 148.092C200.956 149.086 201.635 149.923 202.547 150.418C203.459 150.912 204.531 151.024 205.526 150.729C206.52 150.434 207.357 149.755 207.852 148.843C208.131 148.335 208.292 147.771 208.322 147.193C208.332 147.063 208.332 146.933 208.322 146.803C208.316 146.398 208.248 145.997 208.122 145.613L219.382 133.353C219.596 133.393 219.814 133.413 220.032 133.413C220.801 133.412 221.554 133.183 222.192 132.753L230.792 136.753C230.808 137.266 230.925 137.772 231.139 138.239C231.352 138.707 231.656 139.127 232.033 139.476C232.41 139.825 232.853 140.095 233.336 140.271C233.819 140.447 234.332 140.525 234.845 140.5C235.358 140.475 235.862 140.349 236.325 140.128C236.789 139.907 237.204 139.595 237.547 139.212C237.889 138.829 238.151 138.381 238.319 137.896C238.486 137.41 238.555 136.896 238.522 136.383C238.484 135.665 238.245 134.971 237.832 134.383L242.652 125.233Z" fill="#263238"/>
<path d="M251.17 196.27C249.604 196.273 248.103 196.896 246.997 198.005C245.891 199.113 245.27 200.614 245.27 202.18V253.39C245.27 254.955 245.891 256.455 246.998 257.562C248.104 258.668 249.605 259.29 251.17 259.29H313.17C314.735 259.29 316.237 258.669 317.345 257.563C318.453 256.456 319.077 254.956 319.08 253.39V202.15C319.077 200.584 318.453 199.084 317.345 197.977C316.237 196.871 314.735 196.25 313.17 196.25L251.17 196.27Z" stroke="#263238" stroke-linejoin="round"/>
<path d="M254.87 203.25H250.16V203.88H254.87V203.25Z" fill="#263238"/>
<path d="M254.87 208.391H250.16V209.021H254.87V208.391Z" fill="#263238"/>
<path d="M254.87 213.531H250.16V214.161H254.87V213.531Z" fill="#263238"/>
<path d="M254.87 218.68H250.16V219.31H254.87V218.68Z" fill="#263238"/>
<path d="M254.69 208.391H249.98V209.021H254.69V208.391Z" fill="#263238"/>
<path d="M254.87 223.82H250.16V224.45H254.87V223.82Z" fill="#263238"/>
<path d="M285.761 251.64C290.23 251.732 294.626 250.497 298.392 248.089C302.159 245.682 305.126 242.211 306.92 238.117C308.713 234.022 309.251 229.488 308.466 225.087C307.681 220.686 305.607 216.618 302.509 213.396C299.41 210.174 295.426 207.944 291.059 206.988C286.692 206.032 282.14 206.392 277.979 208.025C273.817 209.657 270.234 212.487 267.681 216.156C265.129 219.826 263.723 224.171 263.641 228.64C263.528 234.622 265.795 240.404 269.942 244.717C274.089 249.029 279.779 251.519 285.761 251.64ZM286.551 213.1C289.715 213.164 292.789 214.165 295.384 215.976C297.979 217.787 299.979 220.327 301.13 223.275C302.282 226.222 302.534 229.445 301.853 232.536C301.173 235.627 299.592 238.446 297.309 240.638C295.026 242.83 292.145 244.295 289.029 244.85C285.913 245.404 282.703 245.021 279.805 243.751C276.906 242.481 274.449 240.379 272.745 237.713C271.041 235.046 270.166 231.934 270.231 228.77C270.317 224.528 272.085 220.494 275.146 217.556C278.206 214.617 282.309 213.014 286.551 213.1Z" fill="#407BFF"/>
<path opacity="0.2" d="M285.761 251.64C290.23 251.732 294.626 250.497 298.392 248.089C302.159 245.682 305.126 242.211 306.92 238.117C308.713 234.022 309.251 229.488 308.466 225.087C307.681 220.686 305.607 216.618 302.509 213.396C299.41 210.174 295.426 207.944 291.059 206.988C286.692 206.032 282.14 206.392 277.979 208.025C273.817 209.657 270.234 212.487 267.681 216.156C265.129 219.826 263.723 224.171 263.641 228.64C263.528 234.622 265.795 240.404 269.942 244.717C274.089 249.029 279.779 251.519 285.761 251.64ZM286.551 213.1C289.715 213.164 292.789 214.165 295.384 215.976C297.979 217.787 299.979 220.327 301.13 223.275C302.282 226.222 302.534 229.445 301.853 232.536C301.173 235.627 299.592 238.446 297.309 240.638C295.026 242.83 292.145 244.295 289.029 244.85C285.913 245.404 282.703 245.021 279.805 243.751C276.906 242.481 274.449 240.379 272.745 237.713C271.041 235.046 270.166 231.934 270.231 228.77C270.317 224.528 272.085 220.494 275.146 217.556C278.206 214.617 282.309 213.014 286.551 213.1Z" fill="black"/>
<path d="M269.999 245.222C272.126 247.367 274.654 249.072 277.44 250.241C280.226 251.409 283.215 252.017 286.235 252.03C289.256 252.043 292.25 251.461 295.046 250.316C297.841 249.172 300.384 247.489 302.529 245.362C302.608 245.274 302.652 245.16 302.652 245.042C302.652 244.923 302.608 244.81 302.529 244.722L297.839 240.002C297.798 239.958 297.748 239.923 297.693 239.899C297.639 239.875 297.579 239.862 297.519 239.862C297.398 239.869 297.283 239.914 297.189 239.992C295.715 241.471 293.954 242.634 292.014 243.409C290.075 244.185 287.997 244.556 285.909 244.502H284.799C281.405 244.312 278.168 243.008 275.589 240.792C275.359 240.582 275.119 240.372 274.899 240.152C272.265 237.521 270.645 234.045 270.325 230.336C270.004 226.627 271.005 222.924 273.149 219.882C273.17 219.854 273.187 219.823 273.199 219.792C273.299 219.652 273.409 219.532 273.529 219.392C275.067 217.444 277.051 215.894 279.314 214.874C281.577 213.854 284.051 213.394 286.529 213.532C286.588 213.533 286.647 213.523 286.702 213.501C286.757 213.48 286.808 213.448 286.851 213.407C286.893 213.366 286.927 213.317 286.951 213.263C286.975 213.209 286.988 213.151 286.989 213.092L287.119 206.462C287.122 206.341 287.078 206.225 286.995 206.137C286.913 206.049 286.8 205.997 286.679 205.992C282.102 205.915 277.605 207.206 273.766 209.699C269.926 212.193 266.918 215.776 265.127 219.989C263.335 224.202 262.842 228.854 263.71 233.349C264.578 237.844 266.768 241.978 269.999 245.222Z" fill="#263238"/>
<path d="M286.691 206C292.924 206.007 298.9 208.488 303.304 212.899C307.708 217.31 310.18 223.289 310.176 229.522C310.173 235.756 307.695 241.732 303.286 246.138C298.877 250.545 292.899 253.02 286.666 253.02C280.433 253.02 274.455 250.545 270.047 246.138C265.638 241.732 263.16 235.756 263.156 229.522C263.153 223.289 265.625 217.31 270.029 212.899C274.433 208.488 280.408 206.007 286.641 206H286.691ZM285.771 251.17C290.15 251.26 294.456 250.05 298.147 247.692C301.837 245.334 304.746 241.935 306.504 237.924C308.262 233.913 308.792 229.471 308.025 225.159C307.258 220.847 305.23 216.86 302.197 213.701C299.164 210.542 295.262 208.353 290.985 207.412C286.708 206.471 282.248 206.819 278.169 208.413C274.09 210.007 270.575 212.774 268.07 216.366C265.564 219.958 264.179 224.212 264.091 228.59C263.973 234.46 266.191 240.136 270.256 244.372C274.321 248.608 279.902 251.057 285.771 251.18V251.17ZM286.561 212.63C289.808 212.696 292.963 213.723 295.626 215.582C298.289 217.441 300.341 220.048 301.523 223.073C302.704 226.098 302.962 229.406 302.264 232.578C301.565 235.749 299.942 238.643 297.599 240.892C295.256 243.141 292.299 244.645 289.102 245.213C285.904 245.782 282.61 245.389 279.635 244.085C276.661 242.781 274.14 240.624 272.391 237.888C270.642 235.151 269.745 231.957 269.811 228.71C269.901 224.357 271.715 220.217 274.856 217.201C277.998 214.186 282.208 212.542 286.561 212.63ZM285.911 244.54C288.978 244.603 291.995 243.754 294.58 242.102C297.165 240.45 299.202 238.069 300.434 235.259C301.665 232.45 302.036 229.338 301.498 226.317C300.961 223.297 299.541 220.504 297.416 218.291C295.291 216.078 292.558 214.545 289.562 213.886C286.566 213.226 283.442 213.47 280.584 214.587C277.727 215.703 275.264 217.642 273.509 220.157C271.753 222.673 270.783 225.653 270.721 228.72C270.641 232.83 272.196 236.804 275.044 239.769C277.892 242.734 281.801 244.446 285.911 244.53V244.54Z" fill="#263238"/>
<path d="M169.672 278.133V338.793" stroke="#263238" stroke-width="0.879169" stroke-linecap="round" stroke-linejoin="round"/>
<path d="M179.42 301.02H174.27V335.75H179.42V301.02Z" fill="#263238"/>
<path d="M186.779 315.191H181.629V335.741H186.779V315.191Z" fill="#407BFF"/>
<path d="M195.431 289.789H190.281V335.749H195.431V289.789Z" fill="white" stroke="#263238" stroke-width="0.879169" stroke-linejoin="round"/>
<path d="M209.791 283.16H204.641V335.74H209.791V283.16Z" fill="#263238"/>
<path d="M217.162 322.742H212.012V335.752H217.162V322.742Z" fill="#407BFF"/>
<path d="M225.81 304.699H220.66V335.749H225.81V304.699Z" fill="white" stroke="#263238" stroke-width="0.879169" stroke-linejoin="round"/>
<path d="M246.791 309.449H241.641V335.739H246.791V309.449Z" fill="#263238"/>
<path d="M254.162 289.051H249.012V335.741H254.162V289.051Z" fill="#407BFF"/>
<path d="M262.81 299.359H257.66V335.739H262.81V299.359Z" fill="white" stroke="#263238" stroke-width="0.879169" stroke-linejoin="round"/>
<path d="M164.141 327.711H167.021" stroke="#263238" stroke-width="0.879169" stroke-linecap="round" stroke-linejoin="round"/>
<path d="M164.141 320.223H167.021" stroke="#263238" stroke-width="0.879169" stroke-linecap="round" stroke-linejoin="round"/>
<path d="M164.141 312.742H167.021" stroke="#263238" stroke-width="0.879169" stroke-linecap="round" stroke-linejoin="round"/>
<path d="M164.141 305.25H167.021" stroke="#263238" stroke-width="0.879169" stroke-linecap="round" stroke-linejoin="round"/>
<path d="M164.141 297.762H167.021" stroke="#263238" stroke-width="0.879169" stroke-linecap="round" stroke-linejoin="round"/>
<path d="M164.141 290.27H167.021" stroke="#263238" stroke-width="0.879169" stroke-linecap="round" stroke-linejoin="round"/>
<path d="M164.141 282.781H167.021" stroke="#263238" stroke-width="0.879169" stroke-linecap="round" stroke-linejoin="round"/>
<path d="M166.262 335.75H266.422" stroke="#263238" stroke-width="0.879169" stroke-linecap="round" stroke-linejoin="round"/>
<path opacity="0.3" d="M186.779 315.191H181.629V335.741H186.779V315.191Z" fill="black"/>
<path opacity="0.3" d="M217.162 322.742H212.012V335.752H217.162V322.742Z" fill="black"/>
<path opacity="0.3" d="M254.162 289.051H249.012V335.741H254.162V289.051Z" fill="black"/>
<path d="M160.049 269.71C158.323 269.712 156.669 270.399 155.449 271.619C154.228 272.84 153.542 274.494 153.539 276.22V335.73C153.542 337.456 154.228 339.112 155.448 340.334C156.668 341.555 158.322 342.244 160.049 342.25H270.499C272.227 342.244 273.882 341.556 275.104 340.334C276.325 339.113 277.014 337.457 277.019 335.73V276.2C277.016 274.471 276.329 272.814 275.106 271.592C273.884 270.37 272.227 269.682 270.499 269.68L160.049 269.71Z" stroke="#263238" stroke-linejoin="round"/>
<path d="M72.6506 402.741C72.6506 402.741 74.9606 418.161 69.3706 419.741C63.7806 421.321 59.9006 419.241 59.2006 416.931C58.5006 414.621 63.4506 398.121 63.4506 398.121L72.6506 402.741Z" fill="white"/>
<path d="M169.88 406.15L194.18 411.91C194.18 411.91 196.02 412.91 195.82 414.56C195.62 416.21 184.53 420.44 181.42 420.97C178.31 421.5 160.36 423.84 157.81 421.65C155.26 419.46 160.65 402 160.65 402L169.88 406.15Z" fill="white"/>
<path d="M125.879 124.92C125.879 124.92 129.299 130.08 129.349 132.69C129.399 135.3 129.079 138.28 130.679 139.82C132.279 141.36 133.509 143.04 132.849 143.82C132.189 144.6 130.919 146.12 130.919 146.12C130.919 146.12 132.569 154.91 130.429 156.5C128.289 158.09 121.859 156.5 121.859 156.5V162.18C121.859 162.18 112.719 159.18 106.409 159.74L105.289 147.57C105.289 147.57 118.999 121.21 125.879 124.92Z" fill="white"/>
<path d="M182.101 160.882C182.101 160.882 181.281 154.642 184.321 150.882C184.321 150.882 180.681 150.262 181.121 148.942C181.561 147.622 187.121 149.352 187.121 149.352L185.621 146.352C185.621 146.352 180.371 144.612 181.021 142.982C181.671 141.352 189.371 145.362 189.371 145.362C189.371 145.362 184.801 141.542 185.441 139.952C186.081 138.362 190.731 138.392 193.211 146.632L194.471 145.062C194.471 145.062 194.921 135.682 196.211 135.172C196.211 135.172 198.211 136.272 198.211 141.662C198.211 141.662 200.211 144.072 198.941 146.112C197.671 148.152 194.681 152.742 192.141 154.462C189.601 156.182 189.611 162.892 189.611 162.892L182.101 160.882Z" fill="white"/>
<path d="M101.62 109.59L102.77 108.05C102.77 108.05 115.64 102.31 115.32 100.52C115 98.7296 107.71 101.2 106.32 100.25C106.32 100.25 107.65 83.3097 106.32 82.7597C104.99 82.2097 103.51 90.7097 103.51 90.7097C103.51 90.7097 101.64 81.9896 100.2 82.2396C98.7595 82.4896 99.3595 91.2396 99.3595 91.2396C99.3595 91.2396 96.6095 85.6297 95.5395 86.1497C94.4695 86.6697 96.0695 93.5097 96.0695 93.5097C96.0695 93.5097 94.0695 91.1597 93.2695 91.8697C93.5331 95.4028 94.5022 98.8474 96.1195 102L93.3395 106.7L101.62 109.59Z" fill="white"/>
<path d="M180.711 160.92L189.581 162.16C189.581 162.16 183.091 217.16 181.181 223.95C179.271 230.74 177.551 235.62 171.031 235.95C164.511 236.28 141.281 216.75 141.281 216.75L140.201 243.75L141.711 254.95C141.711 254.95 113.301 269.88 84.4109 256.89L85.0609 243.75L74.6509 183.65L66.4609 155.11L92.8909 105L102.471 110L85.5709 155.61L90.3009 170.84L95.5909 168.72L101.441 161.26C101.441 161.26 111.361 156.11 123.911 163.26L125.911 169.52C125.911 169.52 140.631 170.63 165.481 205.08L180.711 160.92Z" fill="#407BFF"/>
<path opacity="0.2" d="M117.301 160.922L118.421 168.622C118.421 168.622 126.681 174.102 130.001 176.002C130.001 176.002 138.121 227.282 132.111 237.372L125.781 247.282C125.781 247.282 132.251 247.282 135.231 242.752C135.231 242.752 131.521 255.132 121.901 258.462C121.901 258.462 136.671 256.922 141.751 254.962L140.241 243.762L142.671 181.312C142.671 181.312 144.961 177.132 125.921 169.642L123.111 162.892L117.301 160.922Z" fill="black"/>
<path d="M125.879 125.621C125.879 125.621 128.979 130.161 129.349 132.691C129.719 135.221 128.619 138.011 130.679 139.821C132.739 141.631 133.679 142.821 132.849 143.821C132.019 144.821 130.919 146.121 130.919 146.121C130.919 146.121 131.759 154.691 130.429 156.501C129.099 158.311 121.859 156.501 121.859 156.501V162.181" stroke="#263238" stroke-linecap="round" stroke-linejoin="round"/>
<path d="M121.859 145.74C121.859 145.74 118.959 138.25 116.789 140.06C114.619 141.87 116.549 151.77 121.859 149.6" stroke="#263238" stroke-linecap="round" stroke-linejoin="round"/>
<path d="M121.072 143.998C121.072 143.998 124.522 143.718 122.342 135.628C120.162 127.538 124.882 128.628 129.952 126.328C135.022 124.028 136.232 119.808 135.142 117.278C134.052 114.748 132.242 113.408 125.842 114.618C125.842 114.618 118.842 106.528 112.082 115.468C112.082 115.468 96.8617 115.228 92.7617 122.468C88.6617 129.708 94.0917 148.188 102.062 154.348C110.032 160.508 117.822 155.578 119.442 149.788C119.442 149.788 114.012 146.858 116.792 140.098C116.792 140.058 119.322 139.158 121.072 143.998Z" fill="#263238"/>
<path d="M73.8594 179.09C73.8594 179.09 110.689 152.38 142.789 179.09L140.199 243.71L141.709 254.91C141.709 254.91 114.569 267.62 84.4094 256.85L85.0594 243.71L73.8594 179.09Z" stroke="#263238" stroke-linecap="round" stroke-linejoin="round"/>
<path d="M95.1016 169.38L101.442 161.3C101.442 161.3 113.872 157 123.912 163.3L125.912 169.56" stroke="#263238" stroke-linecap="round" stroke-linejoin="round"/>
<path d="M142.789 179.09L174.859 215.97" stroke="#263238" stroke-linecap="round" stroke-linejoin="round"/>
<path d="M141.312 216.001C141.312 216.001 162.563 235.771 171.033 236.001C179.503 236.231 180.913 226.001 180.913 226.001L189.583 162.201L180.713 160.961L165.452 205.191" stroke="#263238" stroke-linecap="round" stroke-linejoin="round"/>
<path d="M189.43 162C189.43 162 190.54 154.79 193.43 153.15C196.32 151.51 199.75 145.15 198.65 143.32C197.55 141.49 194.19 147.44 191.16 148.58C188.13 149.72 185.67 155.32 185.25 157.75" stroke="#263238" stroke-linecap="round" stroke-linejoin="round"/>
<path d="M197.719 143.059C197.719 143.059 197.719 134.729 196.189 135.119C194.659 135.509 194.449 146.059 194.449 146.059" stroke="#263238" stroke-linecap="round" stroke-linejoin="round"/>
<path d="M193.329 147.131C193.329 147.131 192.329 142.461 189.579 140.181C186.829 137.901 185.109 139.131 185.419 139.901C185.729 140.671 190.419 146.901 190.309 149.021" stroke="#263238" stroke-linecap="round" stroke-linejoin="round"/>
<path d="M188.57 144.82C188.57 144.82 181.02 141.36 181 143.43C180.98 145.5 185.6 146.3 185.6 146.3L187.1 149.3C187.1 149.3 180.74 147.3 181.1 148.89C181.46 150.48 184.3 150.83 184.3 150.83C184.3 150.83 181.21 153.89 182.08 160.83" stroke="#263238" stroke-linecap="round" stroke-linejoin="round"/>
<path d="M137.339 255.658L139.269 269.178C139.269 269.178 157.039 322.488 159.739 332.908C162.439 343.328 163.989 366.908 164.739 377.718C165.489 388.528 171.739 406.718 171.739 406.718C171.739 406.718 170.969 414.058 157.839 412.898C157.839 412.898 152.429 391.268 146.639 378.518C140.849 365.768 139.999 346.428 139.999 346.428L111.799 294.668C111.799 294.668 106.029 324.808 102.149 335.998C98.1491 347.538 70.8791 411.568 72.7891 407.078C72.7891 407.078 68.9291 409.398 60.7891 403.598C60.7891 403.598 66.5791 384.288 68.1191 373.858C69.6591 363.428 77.7791 339.478 77.7791 339.478C77.7791 339.478 79.7091 294.288 82.7791 280.378C82.7791 280.378 80.7791 265.058 85.0491 254.238C101.974 259.766 120.139 260.259 137.339 255.658Z" fill="#263238"/>
<path d="M96.3516 285.59L109.012 289.27L110.852 293.76" stroke="white" stroke-linecap="round" stroke-linejoin="round"/>
<path d="M158.119 411.321C158.119 411.321 156.409 419.891 157.809 421.651C158.549 422.571 160.749 422.401 161.809 422.421C164.249 422.471 166.699 422.311 169.139 422.151C174.019 421.831 179.019 421.881 183.729 420.371C187.697 419.179 191.487 417.46 194.999 415.261C196.919 413.981 194.999 411.911 194.999 411.911L171.749 406.691" stroke="#263238" stroke-linecap="round" stroke-linejoin="round"/>
<path d="M158 418.63C158 418.63 184.13 422.92 195 411.91" stroke="#263238" stroke-linecap="round" stroke-linejoin="round"/>
<path d="M61.7994 402.738C61.7994 402.738 58.7994 413.028 59.2394 416.268C59.6794 419.508 62.9294 420.268 66.7294 420.178C70.5294 420.088 72.0894 418.388 72.6494 415.818C73.2094 413.248 72.6494 404.938 72.6494 404.938" stroke="#263238" stroke-linecap="round" stroke-linejoin="round"/>
<path d="M59.1992 414.699L72.6492 415.819" stroke="#263238" stroke-linecap="round" stroke-linejoin="round"/>
<path d="M94.311 105.32C95.451 103.24 96.121 101.97 96.121 101.97C96.121 101.97 92.411 93 93.341 91.9C94.271 90.8 96.421 93.9 96.421 93.9C96.421 93.9 94.221 86.77 95.611 86.16C97.001 85.55 99.481 92.16 99.481 92.16C99.481 92.16 98.831 82.61 100.271 82.16C101.711 81.71 103.441 91.24 103.441 91.24C103.441 91.24 105.301 82.76 106.441 82.68C107.581 82.6 106.441 100.17 106.441 100.17C108.741 101.3 115.501 98.54 115.441 100.77C115.381 103 102.441 108.13 102.441 108.13C102.215 108.424 102.017 108.738 101.851 109.07" stroke="#263238" stroke-linecap="round" stroke-linejoin="round"/>
<path d="M73.8609 179.091L66.4609 155.111L92.8909 105.031L102.471 110.041L85.5709 155.651L90.3009 170.881" stroke="#263238" stroke-linecap="round" stroke-linejoin="round"/>
<path d="M74.7194 151.32C74.7194 151.32 84.1994 151.24 85.5694 155.65C81.4166 155.42 77.3029 156.558 73.8594 158.89" stroke="#263238" stroke-linecap="round" stroke-linejoin="round"/>
<path d="M106.039 160.259V153.309" stroke="#263238" stroke-linecap="round" stroke-linejoin="round"/>
<path opacity="0.2" d="M142.63 198.43L145 214.2C145 214.2 146.94 203.91 148.15 203.91C149.36 203.91 148.15 215.97 148.15 215.97C148.15 215.97 168.03 233.97 176.63 234.07C176.63 234.07 171.85 237.43 167.06 234.93C162.27 232.43 141.27 215.93 141.27 215.93L142.63 198.43Z" fill="black"/>
<path opacity="0.2" d="M100.769 109.148L82.5894 153.308C82.5894 153.308 76.2594 153.208 73.8594 158.888L83.5794 157.148L86.8494 172.148L90.2994 170.838L85.5694 155.608L102.469 109.998L100.769 109.148Z" fill="black"/>
<path d="M351.312 186.81L344.152 171.52L316.012 190.11L339.232 231.25L357.342 220.97L351.312 186.81Z" fill="white"/>
<path d="M374.501 319.06C374.501 319.06 379.051 331.69 379.721 337.84C380.391 343.99 378.341 369.89 378.781 377.03C379.221 384.17 383.081 405.48 383.081 405.48C383.081 405.48 364.151 419.24 358.141 414.81C358.141 414.81 371.481 404.01 372.831 399.71L368.511 370.52L364.221 336C364.221 336 363.131 328.79 361.611 325.08C360.091 321.37 360.321 313.5 360.321 313.5L374.501 319.06Z" fill="white"/>
<path d="M374.103 317.941C374.103 317.941 379.023 331.241 380.173 340.791C381.323 350.341 377.863 372.001 379.003 382.431C380.143 392.861 381.313 398.631 383.333 404.121L382.333 420.231H379.743L378.743 411.091C378.743 411.091 374.683 409.401 372.223 415.251C369.763 421.101 360.673 421.871 356.363 418.481C356.363 418.481 356.363 415.861 359.603 413.551C362.843 411.241 371.303 404.021 372.843 399.711C372.843 399.711 368.223 369.711 367.143 359.991C366.063 350.271 364.373 332.601 362.213 326.901C360.053 321.201 360.063 313.051 360.063 313.051" stroke="#263238" stroke-linecap="round" stroke-linejoin="round"/>
<path d="M382.34 401.098C382.34 401.098 369.65 414.898 359 414.808" stroke="#263238" stroke-linecap="round" stroke-linejoin="round"/>
<path d="M358.142 414.808C359.902 415.003 361.684 414.78 363.342 414.158C366.212 413.158 376.542 408.158 381.622 401.848L383.182 403.618L382.362 419.858L379.752 420.228L378.752 411.088C378.752 411.088 375.412 409.558 373.262 413.318C371.112 417.078 369.562 419.658 365.802 420.488C362.042 421.318 356.372 418.488 356.372 418.488C356.372 418.488 355.382 416.998 358.142 414.808Z" fill="#263238"/>
<path d="M383.352 319.49C384.544 323.875 385.993 328.186 387.692 332.4C389.962 337.61 409.572 390.3 409.572 390.3C409.572 390.3 411.062 418.82 419.412 418.73C427.762 418.64 419.082 398.8 419.082 398.8L414.002 387.93C414.002 387.93 412.062 356 409.662 344.26L399.442 316.73L383.352 319.49Z" fill="white"/>
<path d="M399.55 317.648C399.55 317.648 407.94 336.738 409.67 344.258C411.4 351.778 413.14 385.608 414.01 387.928C414.88 390.248 428.76 414.818 420.37 419.738C411.98 424.658 410 391.398 410 391.398C410 391.398 390.63 337.598 387.73 332.398C384.83 327.198 381.66 312.148 381.66 312.148L399.55 317.648Z" stroke="#263238" stroke-linecap="round" stroke-linejoin="round"/>
<path d="M422 407.129C422 407.129 421.42 413.789 419.22 414.729C417.02 415.669 412.16 408.159 412.16 408.159" stroke="#263238" stroke-linecap="round" stroke-linejoin="round"/>
<path d="M412.184 409.311C412.184 409.311 415.184 420.671 419.184 420.191C423.184 419.711 423.904 413.401 422.014 408.531C422.014 408.531 421.344 413.531 419.234 414.731C417.104 414.761 412.184 409.311 412.184 409.311Z" fill="#263238"/>
<path d="M376.771 218.348C376.771 218.348 386.881 232.148 393.891 254.348C400.901 276.548 400.181 319.068 400.181 319.068C400.181 319.068 374.091 327.458 348.801 316.798L353.431 220.998C353.431 220.998 369.701 221.298 376.771 218.348Z" fill="#263238"/>
<path d="M363.712 118.27C363.712 118.27 355.852 125.63 354.932 130.45C354.174 133.823 352.956 137.077 351.312 140.12C352.158 141.399 353.397 142.368 354.842 142.88C354.842 142.88 355.353 152.75 358.223 153.51L365.082 151.71L365.812 155.94L375.652 152.2V146.5L383.152 141.6L380.483 128.79L368.283 123.09L363.712 118.27Z" fill="white"/>
<path d="M353.38 220.228L352.51 206.388C352.51 206.388 346.11 194.388 348.14 190.028C350.38 185.238 363.84 167.498 363.84 167.498L362.52 157.818L381.38 149.738L382.28 157.818L380 159.508L382.53 164.928C382.53 164.928 382.69 163.318 387.07 171.488C391.45 179.658 407.95 208.728 409.25 214.308C410.55 219.888 383.59 239.548 374.49 244.188C374.49 244.188 373.44 241.938 362.63 250.188C359.88 249.708 356.08 247.238 355.27 245.708C354.46 244.178 358.38 240.538 358.38 240.538C358.38 240.538 360.74 236.078 364.91 239.648H369.35L394.76 215.998L381.88 197.148L376.77 218.318C376.77 218.318 360.24 223.338 353.38 220.228Z" fill="white"/>
<path d="M362.523 157.818L363.873 167.708L382.283 157.818L381.383 149.738L362.523 157.818Z" stroke="#263238" stroke-linecap="round" stroke-linejoin="round"/>
<path d="M363.871 167.711C363.871 167.711 347.121 188.201 347.571 192.241C348.021 196.281 352.511 206.391 352.511 206.391L353.431 220.991C353.431 220.991 366.981 221.361 376.771 218.351L381.881 197.181" stroke="#263238" stroke-linecap="round" stroke-linejoin="round"/>
<path d="M394.76 216L368.81 176.88C368.81 176.88 366.26 167.88 372.4 164.67C378.54 161.46 383.88 165.53 385.79 167.67C387.7 169.81 408.3 209.5 409.26 214.27C410.22 219.04 388.46 238.12 375.87 243.27C375.87 243.27 370.14 246.71 370.14 239.65L394.76 216Z" stroke="#263238" stroke-linecap="round" stroke-linejoin="round"/>
<path d="M382.282 164.929L379.852 159.129" stroke="#263238" stroke-linecap="round" stroke-linejoin="round"/>
<path d="M370.141 239.688H364.921C364.921 239.688 360.851 236.048 358.921 239.688C356.991 243.328 354.551 244.048 355.281 245.748C356.011 247.448 360.191 250.838 362.641 250.228C365.091 249.618 372.001 243.998 372.001 243.998" stroke="#263238" stroke-linecap="round" stroke-linejoin="round"/>
<path d="M361.832 120.859C361.832 120.859 355.702 126.219 355.022 129.189C354.342 132.159 354.632 137.189 351.312 140.119C351.312 140.119 351.482 142.519 354.842 142.879C354.842 142.879 356.563 152.349 358.223 153.509C359.883 154.669 370.042 149.429 374.022 147.269C375.038 146.573 375.777 145.544 376.112 144.359" stroke="#263238" stroke-linecap="round" stroke-linejoin="round"/>
<path d="M357.07 145.771C358.949 145.454 360.645 144.453 361.83 142.961" stroke="#263238" stroke-linecap="round" stroke-linejoin="round"/>
<path d="M357.07 132.07C357.07 132.07 359.49 130.66 360.82 133" stroke="#263238" stroke-linecap="round" stroke-linejoin="round"/>
<path d="M358.733 137.098C358.733 137.908 358.503 138.568 358.133 138.588C357.763 138.608 357.423 137.968 357.383 137.168C357.343 136.368 357.613 135.688 357.983 135.668C358.353 135.648 358.693 136.288 358.733 137.098Z" fill="#263238"/>
<path d="M365.082 151.711L365.892 156.381" stroke="#263238" stroke-linecap="round" stroke-linejoin="round"/>
<path d="M372.943 136.479C372.943 136.479 374.443 133.569 376.113 135.269C377.783 136.969 380.953 144.829 372.403 142.959C372.403 142.959 371.833 147.759 376.113 148.959C380.393 150.159 388.523 143.539 388.793 132.249C389.063 120.959 378.163 113.339 372.403 115.519C372.403 115.519 364.053 102.429 355.773 108.009C347.493 113.589 353.073 122.179 351.313 124.119C349.553 126.059 345.793 124.239 345.673 129.449C345.553 134.659 354.263 134.129 354.263 134.129L355.313 128.389L362.523 120.859C362.523 120.859 360.823 126.299 363.713 131.029C366.323 135.289 372.943 136.479 372.943 136.479Z" fill="#263238"/>
<path d="M388.79 132.248C388.79 132.248 392.79 133.148 392.35 138.558C391.91 143.968 382.88 157.268 383.56 164.928L406.87 208.368C406.87 208.368 417.36 206.368 416.87 195.568C416.38 184.768 403.58 175.668 406.05 167.708C408.52 159.748 418.22 139.478 404.48 127.858C390.74 116.238 369.32 134.048 369.32 134.048L379.81 130.668L388.79 132.248Z" fill="#263238"/>
<path d="M350.412 185.92L344.152 171.52L316.012 190.11L339.232 231.25L353.312 223.5" stroke="#263238" stroke-linecap="round" stroke-linejoin="round"/>
<path d="M324.773 210.46C324.773 210.46 323.253 207.32 325.283 205.59C327.313 203.86 334.283 198.73 334.283 199.99C334.329 200.296 334.31 200.608 334.228 200.906C334.145 201.204 334 201.482 333.803 201.72C331.803 204.4 327.013 208.72 327.323 209.07C327.323 209.07 336.063 203.27 336.903 203.82C337.113 203.96 336.993 204.71 336.263 205.44C333.868 207.572 331.339 209.549 328.693 211.36C328.693 211.36 337.913 207.79 339.103 208.36C339.443 208.52 339.373 209.04 338.303 209.69C335.626 211.145 332.872 212.454 330.053 213.61L332.363 217.47C332.363 217.47 328.003 218.23 324.773 210.46Z" fill="white" stroke="#263238" stroke-linecap="round" stroke-linejoin="round"/>
<path d="M375.012 145.77L375.652 152.2" stroke="#263238" stroke-linejoin="round"/>
</svg>
