<svg xmlns="http://www.w3.org/2000/svg" id="Layer_1" viewBox="0 0 300 200"><defs><style>.cls-1{fill:#fbab88;}.cls-2{fill:#a0b2be;}.cls-3{fill:#fff;}.cls-4{fill:#f18667;}.cls-5{fill:#8da2af;}.cls-6{opacity:.2;}.cls-7{fill:#508710;}.cls-8{fill:#7296cc;}.cls-9{fill:#92abdb;}.cls-10{fill:#00b3e7;}.cls-11{fill:#71bf2b;}.cls-12{fill:#678593;}.cls-13{fill:#ea833d;}.cls-14{fill:#a4b2d5;}.cls-15{fill:#e8eaec;}.cls-16{fill:#002643;}.cls-17{fill:#ffd348;}.cls-18{fill:#66a820;}.cls-19{fill:#0071b8;}.cls-20{fill:#342b6e;}.cls-21{fill:#00619f;}.cls-22{fill:#f7a771;}.cls-23{fill:#c3d4de;}.cls-24{fill:#ffa900;}.cls-25{fill:#e9f6ff;}</style></defs><g class="cls-6"><path class="cls-14" d="M247.94,171.15H66.33c-22.61,2.59-36.56,6.13-36.56,10.05,0,7.91,57.02,14.33,127.37,14.33s127.37-6.41,127.37-14.33c0-3.91-13.95-7.46-36.56-10.05Z"></path></g><g><g><path class="cls-16" d="M217.15,185.22c1.4,0,2.4-1.41,1.87-2.71-1.52-3.74-5.82-6.31-9.91-7.54-7.19-2.16-14.83-2.12-22.33-2.46-7.5-.34-15.23-1.14-21.82-4.74-2.14-1.17-4.14-2.71-5.84-4.51v-45.16h-10.94v45.16c-1.7,1.8-3.69,3.33-5.84,4.51-6.59,3.6-14.32,4.4-21.82,4.74-7.5,.34-15.14,.3-22.33,2.46-4.09,1.23-8.38,3.79-9.91,7.54-.53,1.3,.47,2.71,1.87,2.71,.99,0,1.98,0,2.97,0l-.16-.03c.12-1.22,1.09-2.21,2.19-2.73,1.11-.51,2.35-1.35,3.57-1.46,5.98-.53,103.88-.53,109.86,0,1.22,.11,2.46,.95,3.57,1.46,1.11,.51,2.07,1.51,2.19,2.73l-.16,.03h2.97Z"></path><rect class="cls-20" x="150.87" y="148.14" width="6.32" height="19.41" rx="3.13" ry="3.13"></rect><path class="cls-16" d="M267.57,162.1c-76.79-11.46-154.31-11.46-231.11,0-2.04,.31-3.88-1.27-3.88-3.34V18.96c0-2.07,1.84-3.64,3.88-3.34,76.79,11.46,154.31,11.46,231.11,0,2.04-.31,3.88,1.27,3.88,3.34V158.76c0,2.07-1.84,3.64-3.88,3.34Z"></path><path class="cls-2" d="M265.06,161.23c-76.44-11.8-153.66-11.8-230.1,0V19c76.44,11.8,153.66,11.8,230.1,0V161.23Z"></path><rect class="cls-5" x="202.03" y="25.23" width="54.39" height="32.04"></rect><path class="cls-23" d="M36.96,17.75V159.98c6.1-.94,12.2-1.8,18.31-2.59L90.93,24.1c-18.02-1.47-36.01-3.58-53.97-6.35Z"></path><path class="cls-25" d="M75.67,120.22c-6.3,.48-13.09-.48-18.9-2.91-8.79-3.82-13.97-11.57-19.81-18.47v61.14c76.44-11.8,153.66-11.8,230.1,0V46.63c-55.31,23.61-110.37,45.05-166.67,66.8-8.24,3.39-16,6.3-24.72,6.79Z"></path><rect class="cls-12" x="103.15" y="25.9" width="96.6" height="96.24"></rect><rect class="cls-5" x="36.71" y="45.95" width="64.52" height="52.92"></rect><rect class="cls-12" x="202.25" y="65.4" width="64.77" height="55.29"></rect></g><g><g><rect class="cls-21" x="205.55" y="60.79" width="85.63" height="56.55"></rect><g><g><g><path class="cls-17" d="M223.32,67.46c-5.41,0-9.8,4.39-9.8,9.8s4.39,9.8,9.8,9.8,9.8-4.39,9.8-9.8-4.39-9.8-9.8-9.8Zm0,15.74c-3.28,0-5.93-2.66-5.93-5.93s2.66-5.93,5.93-5.93,5.93,2.66,5.93,5.93-2.66,5.93-5.93,5.93Z"></path><path class="cls-8" d="M223.32,83.2c-3.22,0-5.84-2.56-5.93-5.76h-3.87c.1,5.33,4.44,9.62,9.8,9.62s9.7-4.29,9.8-9.62h-3.87c-.1,3.19-2.71,5.76-5.93,5.76Z"></path><path class="cls-19" d="M228.1,68.7l-1.69,3.49c1.71,1.04,2.85,2.92,2.85,5.07,0,.06,0,.12,0,.18h3.87c0-.06,0-.12,0-.18,0-3.68-2.03-6.88-5.02-8.56Z"></path></g><g><path class="cls-17" d="M246.52,67.46c-5.41,0-9.8,4.39-9.8,9.8s4.39,9.8,9.8,9.8,9.8-4.39,9.8-9.8-4.39-9.8-9.8-9.8Zm0,15.74c-3.28,0-5.93-2.66-5.93-5.93s2.66-5.93,5.93-5.93,5.93,2.66,5.93,5.93-2.66,5.93-5.93,5.93Z"></path><path class="cls-17" d="M246.52,71.33c1.75,0,3.31,.76,4.4,1.96l2.86-2.61c-1.79-1.98-4.38-3.22-7.26-3.22-1.94,0-3.75,.57-5.27,1.54l2.39,3.08c.85-.48,1.83-.75,2.88-.75Z"></path><path class="cls-8" d="M256.31,76.9c-.09-2.39-1.03-4.57-2.54-6.22l-2.86,2.61c.88,.97,1.44,2.23,1.52,3.62h3.87Z"></path><path class="cls-8" d="M243.64,72.08l-2.39-3.08c-2.63,1.68-4.4,4.58-4.52,7.9,0,.12,0,.24,0,.36,0,2.55,.98,4.88,2.58,6.62l2.86-2.61c-.97-1.06-1.57-2.47-1.57-4.02,0-.12,0-.24,.01-.36,.12-2.08,1.32-3.87,3.04-4.82Z"></path><path class="cls-19" d="M256.32,77.26c0-.12,0-.24,0-.36h-3.87c0,.12,.01,.24,.01,.36,0,1.57-.61,3-1.61,4.07l2.39,3.07c1.9-1.79,3.09-4.32,3.09-7.14Z"></path></g><path class="cls-17" d="M269.72,67.46c-5.41,0-9.8,4.39-9.8,9.8s4.39,9.8,9.8,9.8,9.8-4.39,9.8-9.8-4.39-9.8-9.8-9.8Zm0,15.74c-3.28,0-5.93-2.66-5.93-5.93s2.66-5.93,5.93-5.93,5.93,2.66,5.93,5.93-2.66,5.93-5.93,5.93Z"></path><path class="cls-8" d="M275.65,77.26c0,2.13-1.13,4-2.82,5.05l2.7,2.84c2.42-1.78,3.99-4.65,3.99-7.89,0-2.88-1.24-5.47-3.22-7.26l-2.79,2.7c1.31,1.09,2.14,2.73,2.14,4.56Z"></path></g><g><rect class="cls-24" x="210.73" y="105.07" width="10.99" height="1.62"></rect><rect class="cls-2" x="210.73" y="108.65" width="5.66" height=".66"></rect><rect class="cls-2" x="217.31" y="108.65" width="3.62" height=".66"></rect><polygon class="cls-2" points="218.88 110.4 218.88 110.84 218.51 110.84 218.51 110.4 212.66 110.4 212.66 111.06 221.37 111.06 221.37 110.4 218.88 110.4"></polygon><rect class="cls-2" x="210.73" y="110.4" width="1.48" height=".66"></rect><rect class="cls-2" x="221.71" y="110.4" width="1.38" height=".66"></rect><rect class="cls-2" x="210.73" y="112.16" width="11.45" height=".66"></rect><rect class="cls-2" x="210.73" y="113.92" width="8.34" height=".66"></rect><rect class="cls-2" x="219.62" y="113.92" width="3.48" height=".66"></rect></g><g><g><rect class="cls-5" x="219.66" y="90.15" width="6.88" height="1.63"></rect><rect class="cls-17" x="219.64" y="93.11" width="6.91" height=".45"></rect><rect class="cls-17" x="219.64" y="94.99" width="6.91" height=".45"></rect></g><g><rect class="cls-5" x="243.08" y="90.15" width="6.88" height="1.63"></rect><rect class="cls-17" x="243.06" y="93.11" width="6.91" height=".45"></rect><rect class="cls-17" x="243.06" y="94.99" width="6.91" height=".45"></rect></g><g><rect class="cls-5" x="266.5" y="90.15" width="6.88" height="1.63"></rect><rect class="cls-17" x="266.48" y="93.11" width="6.91" height=".45"></rect><rect class="cls-17" x="266.48" y="94.99" width="6.91" height=".45"></rect></g></g></g></g><g><rect class="cls-3" x="105.03" y="11.83" width="93.21" height="104.37"></rect><g><g><rect class="cls-15" x="122.3" y="15.23" width="23.74" height="2.71"></rect><rect class="cls-15" x="180.6" y="15.23" width="10.41" height="2.71"></rect><rect class="cls-15" x="180.6" y="21.53" width="10.41" height=".89"></rect></g><g><g><path class="cls-18" d="M119.45,71.14c-3.81,0-6.9,3.09-6.9,6.9s3.09,6.9,6.9,6.9,6.9-3.09,6.9-6.9-3.09-6.9-6.9-6.9Zm0,11.08c-2.31,0-4.18-1.87-4.18-4.18s1.87-4.18,4.18-4.18,4.18,1.87,4.18,4.18-1.87,4.18-4.18,4.18Z"></path><path class="cls-18" d="M119.45,75.28c-1.52,0-2.76,1.23-2.76,2.76s1.23,2.76,2.76,2.76,2.76-1.23,2.76-2.76-1.23-2.76-2.76-2.76Zm0,5.18c-1.34,0-2.43-1.09-2.43-2.43s1.09-2.43,2.43-2.43,2.43,1.09,2.43,2.43-1.09,2.43-2.43,2.43Z"></path></g><g><path class="cls-18" d="M134.75,71.14c-3.81,0-6.9,3.09-6.9,6.9s3.09,6.9,6.9,6.9,6.9-3.09,6.9-6.9-3.09-6.9-6.9-6.9Zm0,11.08c-2.31,0-4.18-1.87-4.18-4.18s1.87-4.18,4.18-4.18,4.18,1.87,4.18,4.18-1.87,4.18-4.18,4.18Z"></path><path class="cls-18" d="M134.75,75.28c-1.52,0-2.76,1.23-2.76,2.76s1.23,2.76,2.76,2.76,2.76-1.23,2.76-2.76-1.23-2.76-2.76-2.76Zm0,5.18c-1.34,0-2.43-1.09-2.43-2.43s1.09-2.43,2.43-2.43,2.43,1.09,2.43,2.43-1.09,2.43-2.43,2.43Z"></path></g></g><g><polygon class="cls-17" points="114.71 99.29 114.54 98.87 138.14 89.26 143.27 91.53 149.59 82.41 153.83 85.08 158.43 78.47 158.8 78.73 153.95 85.69 149.71 83.03 143.43 92.09 138.13 89.75 114.71 99.29"></polygon><g><rect class="cls-8" x="121.77" y="94.12" width="4.14" height="16.56"></rect><rect class="cls-8" x="128.48" y="96.69" width="4.14" height="13.99"></rect><rect class="cls-8" x="135.19" y="93.69" width="4.14" height="16.99"></rect><rect class="cls-8" x="141.9" y="98.4" width="4.14" height="12.28"></rect><rect class="cls-8" x="148.61" y="86.84" width="4.14" height="23.84"></rect><rect class="cls-8" x="155.31" y="84.55" width="4.14" height="26.12"></rect></g></g><g><g><g><rect class="cls-15" x="123.35" y="26.45" width="5.39" height="41.01"></rect><rect class="cls-15" x="131.18" y="26.45" width="5.39" height="41.01"></rect><rect class="cls-15" x="139.02" y="26.45" width="5.39" height="41.01"></rect><rect class="cls-15" x="146.85" y="26.45" width="5.39" height="41.01"></rect><rect class="cls-15" x="154.69" y="26.45" width="5.39" height="41.01"></rect><rect class="cls-15" x="162.52" y="26.45" width="5.39" height="41.01"></rect><rect class="cls-15" x="170.36" y="26.45" width="5.39" height="41.01"></rect><rect class="cls-15" x="178.19" y="26.45" width="5.39" height="41.01"></rect><rect class="cls-15" x="186.03" y="26.45" width="5.39" height="41.01"></rect></g><g><rect class="cls-3" x="125.01" y="29.19" width=".68" height="38.02"></rect><rect class="cls-3" x="132.91" y="29.19" width=".68" height="38.02"></rect><rect class="cls-3" x="140.81" y="29.19" width=".68" height="38.02"></rect><rect class="cls-3" x="148.71" y="29.19" width=".68" height="38.02"></rect><rect class="cls-3" x="156.6" y="29.19" width=".68" height="38.02"></rect><rect class="cls-3" x="164.5" y="29.19" width=".68" height="38.02"></rect><rect class="cls-3" x="172.4" y="29.19" width=".68" height="38.02"></rect><rect class="cls-3" x="180.3" y="29.19" width=".68" height="38.02"></rect><rect class="cls-3" x="188.19" y="29.19" width=".68" height="38.02"></rect><rect class="cls-24" x="124.11" y="48.26" width="2.48" height="18.95"></rect><rect class="cls-24" x="132.01" y="48.26" width="2.48" height="18.95"></rect><rect class="cls-24" x="139.9" y="54.41" width="2.48" height="12.81"></rect><rect class="cls-24" x="147.8" y="41.6" width="2.48" height="25.61"></rect><rect class="cls-17" x="147.8" y="41.6" width="2.48" height="5.35"></rect><rect class="cls-24" x="155.7" y="37.65" width="2.48" height="29.56"></rect><rect class="cls-24" x="163.6" y="48.26" width="2.48" height="18.95"></rect><rect class="cls-24" x="171.5" y="40.47" width="2.48" height="26.74"></rect><rect class="cls-17" x="171.5" y="40.47" width="2.48" height="1.82"></rect><rect class="cls-24" x="179.39" y="43.41" width="2.48" height="23.81"></rect><rect class="cls-24" x="187.29" y="48.26" width="2.48" height="18.95"></rect></g></g><g><rect class="cls-15" x="115.66" y="65.59" width="5.07" height="1.47"></rect><rect class="cls-15" x="115.66" y="59.52" width="5.07" height="1.47"></rect><rect class="cls-15" x="115.66" y="53.46" width="5.07" height="1.47"></rect><rect class="cls-15" x="115.66" y="47.39" width="5.07" height="1.47"></rect><rect class="cls-15" x="115.66" y="41.32" width="5.07" height="1.47"></rect><rect class="cls-15" x="115.66" y="35.26" width="5.07" height="1.47"></rect><rect class="cls-15" x="115.66" y="29.19" width="5.07" height="1.47"></rect></g><g><rect class="cls-2" x="123.35" y="24.51" width="5.39" height=".58"></rect><rect class="cls-2" x="131.18" y="24.51" width="5.39" height=".58"></rect><rect class="cls-2" x="139.02" y="24.51" width="5.39" height=".58"></rect><rect class="cls-2" x="146.85" y="24.51" width="5.39" height=".58"></rect><rect class="cls-2" x="154.69" y="24.51" width="5.39" height=".58"></rect><rect class="cls-2" x="162.52" y="24.51" width="5.39" height=".58"></rect><rect class="cls-2" x="170.36" y="24.51" width="5.39" height=".58"></rect><rect class="cls-2" x="178.19" y="24.51" width="5.39" height=".58"></rect><rect class="cls-2" x="186.03" y="24.51" width="5.39" height=".58"></rect></g></g></g></g><g><rect class="cls-3" x="8.82" y="41.66" width="87.89" height="52.92"></rect><g><g><circle class="cls-24" cx="82.46" cy="60.32" r="13.15"></circle><path class="cls-17" d="M82.41,47.17c-3.66,.01-6.97,1.53-9.35,3.95l8.75,9.39,6.15-12.14c-1.69-.78-3.57-1.21-5.55-1.2Z"></path><path class="cls-20" d="M93.76,53.59c-1.36-2.27-3.38-4.1-5.8-5.22l-6.15,12.14,.13,.14,11.82-7.05Z"></path><path class="cls-8" d="M73.06,51.12c-2.33,2.38-3.77,5.65-3.75,9.24,0,2.45,.69,4.74,1.86,6.7l10.48-6.25,.15-.3-8.75-9.39Z"></path><polygon class="cls-24" points="81.81 60.51 81.66 60.81 81.94 60.65 81.81 60.51"></polygon><path class="cls-20" d="M90.97,70.34l-9.03-9.69-.28,.17-5.57,11c1.9,1.06,4.09,1.66,6.43,1.65,3.23-.01,6.18-1.19,8.46-3.13Z"></path><path class="cls-15" d="M71.18,67.07c1.19,1.98,2.89,3.63,4.91,4.75l5.57-11-10.48,6.25Z"></path><path class="cls-8" d="M93.76,53.59l-11.82,7.05,9.03,9.69c2.85-2.42,4.65-6.04,4.64-10.07,0-2.44-.68-4.72-1.85-6.68Z"></path><circle class="cls-3" cx="82.46" cy="60.32" r="9.18"></circle><path class="cls-24" d="M82.46,68.27c-4.39,0-7.95-3.57-7.95-7.95s3.57-7.95,7.95-7.95,7.95,3.57,7.95,7.95-3.57,7.95-7.95,7.95Zm0-15.46c-4.14,0-7.5,3.37-7.5,7.5s3.37,7.5,7.5,7.5,7.5-3.37,7.5-7.5-3.37-7.5-7.5-7.5Z"></path></g><g><rect class="cls-24" x="82.16" y="76.36" width="3.9" height=".9"></rect><rect class="cls-2" x="82.16" y="78.76" width="5.79" height=".9"></rect><rect class="cls-2" x="88.71" y="78.76" width="2.85" height=".9"></rect><rect class="cls-2" x="91.79" y="78.76" width="1.82" height=".9"></rect><rect class="cls-2" x="82.16" y="81.15" width="2.76" height=".9"></rect><rect class="cls-2" x="85.66" y="81.15" width="7.1" height=".9"></rect><rect class="cls-2" x="90.36" y="83.55" width="3.25" height=".9"></rect><rect class="cls-2" x="82.16" y="83.55" width="7.89" height=".9"></rect><rect class="cls-2" x="82.16" y="85.95" width="4.99" height=".9"></rect><rect class="cls-2" x="87.91" y="85.95" width="2.14" height=".9"></rect><rect class="cls-2" x="90.36" y="85.95" width="1.24" height=".9"></rect></g><g><rect class="cls-24" x="18.94" y="83.94" width="10" height=".61"></rect><rect class="cls-2" x="18.94" y="85.57" width="12.03" height=".61"></rect><rect class="cls-2" x="23.54" y="87.21" width="7.43" height=".61"></rect><rect class="cls-2" x="18.94" y="87.21" width="3.5" height=".61"></rect><rect class="cls-2" x="18.94" y="88.85" width="12.03" height=".61"></rect><rect class="cls-2" x="18.94" y="90.48" width="12.03" height=".61"></rect></g><g><g><g><rect class="cls-16" x="18.72" y="50.28" width=".45" height="29.42"></rect><rect class="cls-16" x="27.08" y="50.28" width=".45" height="29.42"></rect><rect class="cls-16" x="35.45" y="50.28" width=".45" height="29.42"></rect><rect class="cls-16" x="43.82" y="50.28" width=".45" height="29.42"></rect><rect class="cls-16" x="52.19" y="50.28" width=".45" height="29.42"></rect><rect class="cls-16" x="60.56" y="50.28" width=".45" height="29.42"></rect></g><rect class="cls-2" x="17.58" y="61.97" width="2.72" height="17.73"></rect><rect class="cls-2" x="26.03" y="68.05" width="2.72" height="11.65"></rect><rect class="cls-2" x="34.33" y="62.94" width="2.72" height="16.76"></rect><rect class="cls-2" x="42.68" y="56.55" width="2.72" height="23.15"></rect><rect class="cls-2" x="51.05" y="66.32" width="2.72" height="13.38"></rect><rect class="cls-15" x="13.21" y="80.26" width="49.21" height=".38"></rect><polygon class="cls-17" points="63.66 56.69 60.78 51.69 57.9 56.69 59.42 56.69 59.42 79.7 62.14 79.7 62.14 56.69 63.66 56.69"></polygon></g><g><path class="cls-15" d="M16.72,78.26c0,.19-.15,.34-.34,.34h-2.83c-.19,0-.34-.15-.34-.34h0c0-.19,.15-.34,.34-.34h2.83c.19,0,.34,.15,.34,.34h0Z"></path><path class="cls-15" d="M16.72,73.35c0,.19-.15,.34-.34,.34h-2.83c-.19,0-.34-.15-.34-.34h0c0-.19,.15-.34,.34-.34h2.83c.19,0,.34,.15,.34,.34h0Z"></path><path class="cls-15" d="M16.72,68.45c0,.19-.15,.34-.34,.34h-2.83c-.19,0-.34-.15-.34-.34h0c0-.19,.15-.34,.34-.34h2.83c.19,0,.34,.15,.34,.34h0Z"></path><path class="cls-15" d="M16.72,63.55c0,.19-.15,.34-.34,.34h-2.83c-.19,0-.34-.15-.34-.34h0c0-.19,.15-.34,.34-.34h2.83c.19,0,.34,.15,.34,.34h0Z"></path><path class="cls-15" d="M16.72,58.65c0,.19-.15,.34-.34,.34h-2.83c-.19,0-.34-.15-.34-.34h0c0-.19,.15-.34,.34-.34h2.83c.19,0,.34,.15,.34,.34h0Z"></path><path class="cls-15" d="M16.72,53.74c0,.19-.15,.34-.34,.34h-2.83c-.19,0-.34-.15-.34-.34h0c0-.19,.15-.34,.34-.34h2.83c.19,0,.34,.15,.34,.34h0Z"></path><path class="cls-15" d="M16.72,48.84c0,.19-.15,.34-.34,.34h-2.83c-.19,0-.34-.15-.34-.34h0c0-.19,.15-.34,.34-.34h2.83c.19,0,.34,.15,.34,.34h0Z"></path></g></g></g></g><g><rect class="cls-3" x="205.55" y="17.56" width="54.93" height="36.28"></rect><g><g><g><rect class="cls-8" x="210.86" y="34.4" width="4.72" height="13.28"></rect><rect class="cls-8" x="216.8" y="38.44" width="4.72" height="9.25"></rect><rect class="cls-8" x="222.75" y="29.19" width="4.72" height="18.49"></rect><rect class="cls-8" x="228.69" y="34.4" width="4.72" height="13.28"></rect><rect class="cls-8" x="234.63" y="29.19" width="4.72" height="18.49"></rect><rect class="cls-8" x="240.57" y="30.66" width="4.72" height="17.03"></rect><rect class="cls-8" x="246.52" y="26.98" width="4.72" height="20.71"></rect></g><g><rect class="cls-19" x="210.86" y="46.36" width="4.72" height="1.33"></rect><rect class="cls-19" x="216.8" y="42.37" width="4.72" height="5.32"></rect><rect class="cls-19" x="222.75" y="45.03" width="4.72" height="2.66"></rect><rect class="cls-19" x="228.69" y="42.37" width="4.72" height="5.32"></rect><rect class="cls-19" x="234.63" y="39.17" width="4.72" height="8.51"></rect><rect class="cls-19" x="240.57" y="42.37" width="4.72" height="5.32"></rect><rect class="cls-19" x="246.52" y="34.4" width="4.72" height="13.28"></rect></g></g><g><rect class="cls-11" x="249.58" y="19.2" width="7.45" height="1.1"></rect><rect class="cls-11" x="249.58" y="21.62" width="3.84" height=".45"></rect><rect class="cls-11" x="254.04" y="21.62" width="2.45" height=".45"></rect><polygon class="cls-11" points="255.11 22.81 255.11 23.11 254.86 23.11 254.86 22.81 250.89 22.81 250.89 23.26 256.8 23.26 256.8 22.81 255.11 22.81"></polygon><rect class="cls-11" x="249.58" y="22.81" width="1" height=".45"></rect><rect class="cls-11" x="257.03" y="22.81" width=".94" height=".45"></rect></g><g><rect class="cls-11" x="211.35" y="25.28" width="3.82" height=".93" rx=".46" ry=".46"></rect><rect class="cls-11" x="217.26" y="25.28" width="3.82" height=".93" rx=".46" ry=".46"></rect><rect class="cls-11" x="223.2" y="25.28" width="3.82" height=".93" rx=".46" ry=".46"></rect><rect class="cls-11" x="229.14" y="25.28" width="3.82" height=".93" rx=".46" ry=".46"></rect><rect class="cls-11" x="235.08" y="25.28" width="3.82" height=".93" rx=".46" ry=".46"></rect><rect class="cls-11" x="241.03" y="25.28" width="3.82" height=".93" rx=".46" ry=".46"></rect><rect class="cls-11" x="246.86" y="25.28" width="3.82" height=".93" rx=".46" ry=".46"></rect></g></g></g></g></g><g><g><g><path class="cls-24" d="M140.64,125.38c.17,.48,.05,1.05,.3,1.5,.22,.39,.68,.59,1.12,.61,.45,.02,.88-.12,1.31-.26,.78-.27,1.54-.58,2.29-.93,.54-.25,1.1-.55,1.43-1.04,.36-.53,.4-1.21,.45-1.85,.2-2.88,.63-5.75,1.28-8.57,.16-.7,.34-1.4,.29-2.11-.05-.71-.38-1.45-1.01-1.79-.4-.22-.88-.26-1.34-.24-.62,.02-1.26,.15-1.73,.53-.7,.56-.89,1.53-1.12,2.4-.55,2.08-1.59,4.03-3,5.66-.57,.65-1.2,1.26-1.6,2.02-.4,.76-.53,1.74-.05,2.46,.4,.6,1.15,.94,1.4,1.62Z"></path><path class="cls-16" d="M145.12,124.82c-.02,.62-.21,1.25-.65,1.69-.46,.46-1.13,.62-1.77,.77-.53,.12-1.12,.24-1.61,0-.55-.27-.81-.89-1.03-1.46-.24-.63-.48-1.26-.54-1.93s.07-1.38,.5-1.89c.36-.43,.91-.68,1.47-.76,.96-.13,1.96,.24,2.64,.93s1.03,1.68,.99,2.64Z"></path><path class="cls-1" d="M142.54,127.3c-1.02,.37-2.14-.03-3.08-.59-1.14-.68-2.15-1.62-2.95-2.73,1.05-.45,1.86-1.49,2.1-2.68,.83,.46,1.79,.56,2.7,.77,.91,.2,1.87,.57,2.42,1.39,.43,.64,.54,1.5,.31,2.24-.23,.74-.81,1.35-1.5,1.6Z"></path><path class="cls-4" d="M143.73,123.46c-.55-.82-1.5-1.18-2.42-1.39-.91-.21-1.87-.3-2.7-.77-.19,.94-.74,1.78-1.48,2.32,1.9,1.32,4.98,1.09,5.8,2.74,.11,.19,.19,.38,.25,.58,.39-.31,.7-.74,.86-1.24,.23-.74,.12-1.61-.31-2.24Z"></path><rect class="cls-16" x="138.45" y="107.88" width="3.09" height="22.84" transform="translate(-25.31 38.64) rotate(-14.43)"></rect><path class="cls-1" d="M135.88,120.24c.02-.28,.04-.57,.11-.84,.28-1.04,1.35-3.24,1.41-4.32,1.01,1.37,.32,2.44,.38,2.97,.52,0,1.05-.02,1.56,.1,.17,.04,.36,.12,.39,.31,.02,.13-.05,.26-.15,.33-.1,.07-.22,.1-.34,.13,.17,.1,.34,.2,.47,.36,.13,.15,.21,.37,.16,.57-.05,.2-.26,.35-.44,.28,.15,.13,.31,.28,.35,.49,.04,.21-.12,.46-.31,.41,.2,.14,.19,.46,.08,.69-.12,.22-.31,.38-.47,.57-.28,.34-.42,.79-.63,1.19-.2,.4-.51,.79-.93,.86-.44,.08-.85-.21-1.18-.52-.15-.14-.3-.3-.39-.49-.12-.25-.12-.54-.13-.82,0-.75,0-1.5,.05-2.25Z"></path><path class="cls-4" d="M139.71,119.27c-.13-.15-.3-.26-.47-.36,.12-.03,.24-.06,.34-.13,.1-.07,.17-.2,.15-.33-.03-.18-.22-.27-.39-.31-.42-.1-.86-.11-1.29-.11,.68,2.18,.75,4.36-.51,6.29,0,0,0,0,0,0,.42-.07,.73-.46,.93-.86,.2-.4,.35-.84,.63-1.19,.16-.19,.35-.35,.47-.57,.12-.22,.12-.55-.08-.69,.19,.05,.35-.21,.31-.41-.04-.21-.2-.35-.35-.49,.18,.07,.39-.08,.44-.28,.05-.2-.03-.42-.16-.57Z"></path><g><path class="cls-16" d="M139.62,120.31c-.52-.28-1.11-.44-1.7-.46v-.23c.63,.02,1.26,.19,1.81,.49l-.11,.2Z"></path><path class="cls-16" d="M139.62,121.14c-.56-.23-1.15-.35-1.75-.38v-.23c.64,.02,1.25,.16,1.84,.39l-.09,.21Z"></path><path class="cls-16" d="M139.22,122.48c-.25-.1-.44-.33-.49-.6,0-.05-.02-.1-.03-.1,0,0-.03-.01-.07-.01-.22-.02-.44,0-.66,.03l-.04-.22c.23-.04,.47-.05,.71-.03,.05,0,.14,0,.2,.07,.07,.06,.08,.15,.09,.21,.04,.21,.17,.38,.35,.45l-.08,.21Z"></path></g></g><g><g><path class="cls-1" d="M149.85,100.27c.95-.11,2.11-.73,3.03-1,.26,1.22,.85,4.34,1.66,5.8l.31,.46c-2.23,1.7-4.51,2.54-7.16,3.26,3.05-1.71,2.03-5.56,2.16-8.52Z"></path><path class="cls-4" d="M152.43,99.41c-.83,.3-1.77,.76-2.57,.85-.13,2.96,.9,6.81-2.16,8.52,1.09-.3,2.12-.62,3.12-1.01,1.15-2.56,1.72-5.41,1.61-8.36Z"></path><path class="cls-16" d="M152.45,99.35c-.87,.3-1.89,.81-2.74,.91,.06,1.27,.23,2.7,.19,4.07,2.06-.43,2.39-2.83,2.55-4.98Z"></path><path class="cls-18" d="M149,106.06c-.55,.28-1.11,.6-1.47,1.11-.6,.84-.52,1.97-.84,2.96,1.22-1.25,2.78-2.12,4.42-2.72,1.64-.6,3.36-.93,5.08-1.21,.09-.43-.18-.87-.55-1.1-.37-.23-.83-.28-1.26-.3-1.86-.07-3.72,.43-5.38,1.26Z"></path></g><g><g><path class="cls-1" d="M153.06,95.26c-.9-1.07-2.1-1.75-3.42-1.99l-.87-.02c-.54,.62-.85,.66-1.28,1.38l-.13,.56c-.1,.36-.32,.81-.71,.97-.48,.2-.91,.51-1.33,.83-.16,.12-.33,.28-.32,.49,0,.16,.12,.29,.23,.4,.24,.25,.49,.48,.74,.71-.09,.82,.04,1.67,.08,2.5,.02,.47,.02,.97,.29,1.34,.25,.34,.68,.46,1.08,.53,1.59,.25,3.25-.18,4.6-1.11,.89-.62,1.68-1.49,1.99-2.58,.39-1.38-.05-2.94-.95-4.01Z"></path><path class="cls-4" d="M153.06,95.26c-.9-1.07-2.1-1.75-3.42-1.99l-.87-.02c-.54,.62-.85,.66-1.28,1.38l-.07,.29c.15,2.48,2.75,5.1,3.41,7.57,.41-.18,.8-.39,1.17-.64,.89-.62,1.68-1.49,1.99-2.58,.39-1.38-.05-2.94-.95-4.01Z"></path><path class="cls-3" d="M147.37,95.19c.04-.13,.06-.26,.06-.35l-.06,.35Z"></path></g><path class="cls-16" d="M158.77,93.06c-.33-.63-.69-1.24-1.09-1.83-.18-.28-.41-.57-.73-.62-.32-.05-.61,.15-.87,.34-.27,.2-.53,.4-.8,.6-.4-.22-.86-.48-1.24-.61-1.29-.47-2.73-.41-3.99,.16l-1.2-.38c-.75,.49-1.1,1.48-1.2,2.42-.17,1.63,.25,3.3,1.08,4.67,.83,1.37,2.3,3.09,3.66,3.8,.75,.4,1.41,.18,2.17-.1,.07-.03,.13-.06,.2-.09,.38-.13,.74-.32,1.08-.55,1.02-.7,1.82-1.69,2.51-2.72,.6-.89,1.16-1.88,1.12-2.95-.03-.76-.35-1.47-.71-2.14Z"></path><path class="cls-19" d="M148.99,94.38c.01,.6,.18,1.19,.49,1.7,.04-.42,.08-.84,.12-1.26,.27,.27,.6,.47,.96,.59,.06-.27,.12-.54,.18-.81,.13,.24,.35,.43,.61,.52,.08-.17,.16-.34,.24-.51,.07,.16,.26,.25,.43,.22,.04-.15,.08-.31,.12-.46,.03,.22,.28,.39,.49,.32,.21-.06,.33-.34,.23-.54,.17,.11,.34,.23,.51,.34,.08-.08,.08-.23-.01-.3,.65,.18,1.34,.19,1.99,.03-.6-.43-1.06-1.06-1.29-1.76,.03,.27-.11,.56-.34,.7-.23,.14-.55,.13-.77-.03-.17,.19-.34,.38-.52,.57-.16-.2-.44-.26-.69-.24-.25,.02-.49,.11-.74,.17-.77,.19-1.61,.08-2.3-.31-.29,1.04-.17,2.2,.33,3.16-.17-.69-.18-1.41-.03-2.1Z"></path><path class="cls-17" d="M155.46,91.61c.08,.79,.25,1.56,.5,2.32-.61-.31-.9-1.01-1.14-1.66-.06-.17-.12-.35-.06-.52,.16-.41,.48,.24,.7-.14Z"></path></g></g><g><g><path class="cls-1" d="M136.48,186c2.15-1.2,3.55-3.26,4.73-5.38,1.43-17.79-.01-16.64,.74-24.36h5.71c.23,4.85,.11,9.24-.95,13.82-.83,3.55-1.55,6.28-2.36,10.54-.15,.79-.32,1.95-.11,2.74,.15,.59,.24,1.13-.05,1.59-.67,1.05-1.33,.8-2.54,1.24-1.4,.52-1.12,1.58-3.96,1.66-.54,.02-1.12,.03-1.6-.31-.17-.12-.33-.3-.38-.53-.1-.51,.39-.82,.77-1.03Z"></path><path class="cls-4" d="M145.22,176.4c.49-2.17,.97-4.08,1.49-6.31,1.07-4.59,1.19-8.98,.95-13.82h-5.71c-.7,7.12,.48,6.69-.46,20.54,1.91,1.09,2.98,.38,3.72-.41Z"></path><path class="cls-16" d="M141.04,185.3c-.57,.44-1.2,.81-1.88,.97-.68,.16-1.41,.11-2.03-.24-.09-.05-.17-.1-.25-.16,.15-.12,.31-.25,.46-.37,.05-.04,.11-.09,.18-.09,.07,0,.13,.04,.2,.07,.27,.15,.58,.15,.87,.16,.83,.01,1.69,.02,2.46-.34Z"></path><path class="cls-17" d="M136.48,186c.21-.12,.41-.25,.61-.38,.55,.51,1.34,.69,2.17,.59,1.85-.23,3.48-1.59,5.01-2.71,.13,.54,.19,1.04-.08,1.46-.67,1.05-1.33,.8-2.54,1.24-1.4,.52-1.12,1.58-3.96,1.66-.54,.02-1.12,.03-1.6-.31-.17-.12-.33-.3-.38-.53-.1-.51,.39-.82,.77-1.03Z"></path></g><g><path class="cls-20" d="M141.66,139.08c.11,2.71-.22,6-.32,8.71-.11,2.76-.43,5.51-.46,8.27-.06,6.49,1.54,13.08,.19,19.38,2.4,.8,5.02,.69,7.36-.31,.87-10.3,1.99-24.1,3.7-35.24-3.15,.2-7.55,.49-10.48-.82Z"></path><path class="cls-16" d="M151.3,141.57c-.52,.03-1.05,.02-1.59-.03,.11,.59,.12,1.17-.09,1.87-1.6,4.57-4.56,11.31-4.56,15.42,0,6.01,0,10.72-.1,17.13,1.22-.06,2.34-.35,3.48-.83,.87-10.3,1.15-22.42,2.87-33.56Z"></path></g></g><g><g><path class="cls-1" d="M149.63,187.78s1.15-.96,1.16-.96c.82-1.16,1.1-2.41,.92-3.86-.98-7.85-3.58-17.57-4.8-25.33h7.06c1.04,8.17,2.22,17.9,.65,25.62-.19,.94-.21,1.91-.08,2.86,.09,.62,.16,1.24,.22,1.85,.06,.59,.09,1.26-.23,1.66-.26,.32-1.23,.16-1.99,.51-1.99,.93-4.24,1.15-5.65,.39-.84-.63,.96-1.71,2.74-2.74Z"></path><path class="cls-4" d="M153.97,157.63h-7.06c1.17,7.48,3.64,16.8,4.69,24.5,1.48,.61,2.78-.21,3.38-1.03,.99-7.32-.06-16.04-1-23.46Z"></path><path class="cls-16" d="M154.27,187.47c.05-.16,.06-.33,.04-.5-.13,.23-.24,.48-.32,.74,.06,.03,.14,0,.18-.05s.08-.12,.1-.19Z"></path><path class="cls-16" d="M150.45,189.85c-.35,.11-.71,.21-1.08,.21-.69,0-1.36-.41-1.73-1.03,.2-.14,.4-.29,.6-.43,.81,.66,1.93,.68,2.93,.48,1-.2,1.97-.59,2.98-.66-1.22,.52-2.44,1.05-3.7,1.44Z"></path><path class="cls-17" d="M147.94,188.81c.26,.36,.67,.64,1.24,.78,.81,.2,1.97-.16,2.72-.45,.92-.36,1.89-.96,2.86-1.17,.06,.59,.09,1.26-.23,1.65-.26,.32-1.23,.16-1.99,.51-1.99,.93-4.24,1.15-5.65,.39-.56-.42,.06-1.04,1.06-1.72Z"></path></g><path class="cls-20" d="M156.11,140.38c1.21,4.51-.41,9.26-.98,13.92-1.01,8.22,3.44,17.71,1.86,25.83-2.43,1.19-5.07,2.13-7.81,.66,.47-4.88-.98-11.28-1.8-16.1-.42-2.47-1.07-4.91-1.29-7.42-.54-6.14,1.47-12.5-.14-18.43,2.88-.14,5.76-.28,8.64-.42l1.53,1.97Z"></path><path class="cls-16" d="M153.19,142.33c.53-.08,1.07-.18,1.52-.46s.81-.79,.74-1.32c-4.43-.28-8.86-.73-13.25-1.34-.24,.38-.18,.9,.06,1.28,.24,.39,.61,.66,1,.89,1.46,.87,3.16,1.26,4.86,1.35,1.7,.08,3.39-.13,5.07-.4Z"></path><path class="cls-16" d="M155.12,154.3c.57-4.65,2.19-9.4,.98-13.92l-1.53-1.97c-.52,.03-1.05,.05-1.57,.08,1.09,1.76,1.92,3.62,1.65,5.47-1.81,10.38,0,19.41,1.35,29.34,.47,2.45,.52,4.83,.26,7.15,.24-.11,.47-.22,.71-.33,1.58-8.12-2.87-17.61-1.86-25.83Z"></path></g><path class="cls-11" d="M157.62,106.39c1.14,1.19,1.44,3.06,1.25,4.75-.26,2.33-1.11,4.57-2.21,6.59-1.02,1.87-1.83,4.09-1.3,6.79,.26,1.34,.78,2.59,1.26,3.86,1.23,3.23,1.86,6.73,1.85,10.22,0,.57-.04,1.19-.39,1.62-.4,.48-1.05,.55-1.65,.58-4.19,.22-10.1,.44-14.91-1.36,.24-6.56,2.84-12.09,3.08-18.65,.12-3.13-1.45-5.29-.21-8.12,1.11-2.53,4.78-5.66,7.16-6.79,1.97-.93,4.52-1.11,6.07,.51Z"></path><path class="cls-18" d="M145.88,130.36c.15-3.43,1.33-6.79,1.17-10.22,3.32-1.28,6.4-3.17,9.05-5.54-1.51,3.53-3.05,7.29-2.45,11.08,.38,2.42,1.6,4.61,2.52,6.87s1.54,5.46,.71,7.76c-4.01,.45-7.65,.52-11.29-.56,.88-3.01,.16-6.24,.3-9.38Z"></path><path class="cls-7" d="M145.36,122.56c.1-.89,.26-1.81,.79-2.53,.48-.65,1.21-1.07,1.93-1.46,2.86-1.55,5.79-2.97,8.79-4.24-2.08,4.93-5.41,9.34-9.59,12.68-.36,.29-.81,.59-1.26,.46-.57-.16-.73-.89-.76-1.49-.06-1.14-.03-2.29,.1-3.43Z"></path><path class="cls-7" d="M142.59,139.85c-.52-2.93,.28-5.88,1.06-8.73,.3-1.12,.62-2.28,.85-3.42,.39-1.95,.55-3.97,.71-5.93,.14-1.74,.28-3.55,.59-5.3,.55-3.15,1.94-7.38,5.44-9.66l.12,.19c-3.43,2.23-4.8,6.4-5.34,9.51-.31,1.74-.45,3.54-.59,5.28-.16,1.96-.32,3.99-.71,5.96-.23,1.15-.55,2.31-.85,3.44-.77,2.83-1.56,5.75-1.05,8.63l-.22,.04Z"></path><path class="cls-1" d="M156.38,106.87c-1.34-.29-2.76,.37-3.91,1.06-1.74,1.04-3.37,2.26-5.05,3.41-1.68,1.15-3.53,2.14-5.52,2.25-2.8-3.14-4.54-3.94-7.28-6.94-.3-.44-.52-.96-.7-1.47-.28-.81-.51-1.67-.96-2.38-.09-.14-.2-.28-.35-.33-.13-.04-.27-.01-.4-.02-.31-.01-.58-.22-.83-.42-.94-.74-1.88-1.49-2.83-2.23-.39,.77,.36,1.15,1.6,2.34-.27-.03-.75,.42-.74,.7,0,.29,.1,.58,.01,.86-.07,.23-.26,.46-.17,.68,.05,.12,.18,.19,.23,.31,.08,.17,0,.36-.01,.55-.01,.31,.18,.58,.36,.82,.28,.37,.57,.74,.96,.97,.28,.17,.59,.25,.87,.42,.5,.29,.73,.61,1.01,1.16,.05,.1,.33,.67,.37,.76,0,0,2.74,5.41,5.63,9.24,.39,.52,1.02,.79,1.67,.74,4.77-.35,9.44-1.84,13.78-4.03,1.01-.51,2.02-1.07,2.87-1.86,.97-.91,1.79-2.11,1.7-3.56-.09-1.41-1-2.73-2.31-3.01Z"></path><g><path class="cls-4" d="M156.38,106.87c-1.34-.29-2.76,.37-3.91,1.06-1.74,1.04-3.37,2.26-5.05,3.41-1.68,1.15-3.53,2.14-5.52,2.25-.38-.42-.74-.8-1.08-1.15-.18,.15-.38,.28-.6,.39-3.16,1.81-6.32-2.26-7.67-5.42-.44-.87-2.14-.91-3.07-2.13,0,.29,.18,.54,.36,.77,.28,.37,.57,.74,.96,.97,.28,.17,.59,.25,.87,.42,.5,.29,.73,.61,1.01,1.16,.05,.1,.33,.67,.37,.76,0,0,2.74,5.41,5.63,9.24,.39,.52,1.02,.79,1.67,.74,4.77-.35,9.44-1.84,13.78-4.03,1.01-.51,2.02-1.07,2.87-1.86,.97-.91,1.79-2.11,1.7-3.56-.09-1.41-1-2.73-2.31-3.01Z"></path><g><path class="cls-11" d="M155.08,106.42c-1.18,.14-2.17,.9-3.14,1.58-2.37,1.66-4.99,2.96-7.75,3.84-.63,.2-1.28,.39-1.83,.76-.55,.37-.98,.98-.96,1.64,.02,.59,.41,1.14,.36,1.73-.05,.65-.57,1.14-.99,1.63-.42,.5-.76,1.22-.4,1.77,.22,.34,.63,.48,1.02,.59,.6,.18,1.21,.35,1.73,.68s.98,.84,1.07,1.46c.06,.39-.02,.78-.03,1.17,0,.39,.08,.82,.4,1.05,.19,.14,.43,.19,.67,.19,1.17-.01,1.99-1.1,2.77-1.97,2.61-2.9,6.6-4.26,9.2-7.17,.88-.99,1.59-2.16,1.88-3.46,.29-1.3,.12-2.72-.62-3.82-.74-1.1-2.08-1.83-3.39-1.67Z"></path><path class="cls-7" d="M141.98,113.22l-.19-.12c.46-.73,1.31-1.24,2.5-1.51,.38-.09,.77-.15,1.14-.21,.57-.09,1.15-.18,1.7-.37,1.22-.4,2.27-1.24,3.17-1.99l.33-.28c.85-.72,1.73-1.47,2.75-1.98,1.31-.66,2.68-.78,3.77-.33l-.09,.21c-1.02-.42-2.33-.3-3.58,.33-.99,.5-1.86,1.23-2.7,1.95l-.33,.28c-.91,.77-1.99,1.62-3.24,2.03-.57,.19-1.16,.28-1.74,.37-.37,.06-.76,.12-1.13,.21-1.14,.26-1.93,.74-2.36,1.42Z"></path><path class="cls-18" d="M146.35,114.1c-1.03,.53-2.18,.81-3.34,.81-.33,0-.7,0-.93,.24,.19,.58,.1,1.23-.22,1.74,.49-.61,1.31-.83,2.03-1.13,.92-.38,1.76-.95,2.46-1.66Z"></path><path class="cls-18" d="M151.4,115.54c-2.2,2.09-4.56,4.02-7.04,5.76-.77-.81-1.83-1.33-2.94-1.47,1.83-.11,3.61-.69,5.26-1.48,1.65-.79,3.19-1.8,4.72-2.81Z"></path><path class="cls-18" d="M146.18,123.82c1.24-.79,2.2-2.01,3.29-2.99,1.17-1.04,2.48-1.77,3.83-2.56,1.35-.79,2.66-1.87,3.12-3.36-.93,1.53-2.45,2.6-4.01,3.47s-3.22,1.58-4.67,2.63c-1.11,.8-2.07,1.78-2.97,2.81,.15,.22,.43,.31,.69,.28s.5-.15,.72-.29Z"></path></g></g></g><path class="cls-4" d="M145.88,97.99c.1,.03,.2,.07,.28,.13,.08,.07,.13,.18,.1,.28s-.16,.16-.25,.1c-.25-.19-.47-.41-.66-.66,.18,.05,.35,.09,.53,.15Z"></path></g><g><g><g><path class="cls-1" d="M199.54,94.17c-.19,1.16,.12,2.39,.83,3.3,.44,2.18,2.2,4.01,4.28,4.46,1.96-.84,3.3-3.06,3.18-5.28s-1.68-4.27-3.72-4.87c-1.13-.34-2.47-.2-3.29,.69l-1.28,1.7Z"></path><path class="cls-4" d="M202.8,91.62c.44-.02,.89,.04,1.31,.16,2.04,.61,3.6,2.65,3.72,4.87s-1.22,4.44-3.18,5.28c-.2-.04-.39-.1-.59-.17,.71-3.5,.78-7.31-1.27-10.14Z"></path><path class="cls-1" d="M212.32,103.37c.22-.25,.01-.63-.18-.9-1.6-2.15-2.76-4.52-3.16-7.18-1.63,.68-3.25,.98-5,1.25,.74,2.91,1.25,5.87,1.53,8.85,2.15-.62,4.31-1.23,6.46-1.85,.13-.04,.27-.08,.36-.18Z"></path><path class="cls-20" d="M198.14,93.92c-.96-.3-1.72-1.17-1.9-2.17,.64,.35,1.41,.45,2.12,.28-.2,0-.41-.08-.54-.24,.84-.05,1.62-.48,2.3-.99,.68-.51,1.29-1.1,2.01-1.55,.71-.45,1.56-.77,2.4-.63,.1,.02,.2,.05,.3,.08,.49-.06,.97-.04,1.45,.08,1.61,.42,2.76,1.96,3.12,3.59,.36,1.63,.55,3.54,.11,5.15-1.64,.78-4.05,.72-5.8,.2-.24-.07-.48-.16-.71-.26-.11-.32-.14-.66-.2-.99-.06-.39-.17-.79-.44-1.07-.27-.29-.74-.41-1.06-.19-.21,.15-.31,.41-.33,.67,0,.12,0,.23,.02,.35-.34-.29-.66-.61-.95-.96-1.18,.1-2.4-.48-3.04-1.48,.37,.11,.76,.15,1.14,.12Z"></path><path class="cls-4" d="M201.7,96.54c-.06-.08-.15-.13-.23-.2-.17-.15-.25-.4-.16-.61,.08-.21,.34-.34,.55-.26,.2,.08,.3,.31,.31,.53,0,.23-.07,.45-.14,.67,.09-.07,.23-.07,.32,0,.09,.07,.13,.2,.08,.31-.03,.07-.09,.13-.14,.19s-.09,.15-.06,.22c.02,.05,.06,.08,.08,.12,.02,.04,.02,.11-.03,.12-.03,0-.06-.01-.09-.03-.21-.16-.35-.4-.39-.65-.02-.14-.01-.3-.09-.42Z"></path><path class="cls-19" d="M202.51,90.96c-.2,.11-.17,.42-.32,.59-.17,.2-.48,.15-.75,.15-.48,0-.94,.26-1.29,.59-.35,.33-.61,.75-.86,1.16-.17-.27-.34-.54-.51-.8l5.18-3.02c-.09,.43-.17,.85-.26,1.28-.02,.08-.03,.16-.09,.22-.13,.15-.38,.07-.55-.04-.17-.11-.38-.23-.56-.13Z"></path></g><g><path class="cls-16" d="M222.14,183.38c.4-.23,1.05-.31,1.51-.35,.46-.04,.84-.19,1.24-.41,.4-.23,.71-.69,.6-1.14,1.19-.1,2.07-.48,3.12-1.05,0,.86,.55,1.63,.79,2.45,.06,.2,.06,.44,.04,.67,.11,.56,.08,1.14-.11,1.68-.98,.56-2.14,.79-3.26,.65-.03-.18-.07-.36-.13-.54-.6-.15-1.04-.23-1.59-.13-.59,.1-.8,.21-1.18,.17-.33-.03-.5-.19-.8-.32-.3-.13-.67-.48-.75-.8-.11-.45,.12-.63,.52-.86Z"></path><path class="cls-15" d="M225.71,182.23c.87-.41,1.76-.83,2.7-1.03,.12,.19,.24,.38,.3,.59s.05,.46-.08,.64c-.12,.17-.34,.26-.54,.32-.81,.21-1.72,.02-2.37-.51Z"></path><path class="cls-19" d="M227.21,171.66c.43,1.1,1.02,5.06,1.6,6.48,.45,1.1,.89,1.68,.22,2.66-.67,.98-2.76,2.05-3.84,1.56-3.01-7.78-6.58-15.34-9.38-23.2-2.81-7.86-4.86-16.1-4.69-24.45,4.51-1.43,9.03-2.86,13.54-4.29,4.23,10.12,1.44,13.13,1.04,20.53-.4,7.41-1.2,13.8,1.51,20.71Z"></path><path class="cls-21" d="M211.12,134.71c3.31-1.05,6.62-2.1,9.93-3.15,4.51,10.08,.37,21.34,1.24,31.76,.61,6.66,2.21,12.96,4.52,18.98-.6,.19-1.19,.25-1.61,.05-3.01-7.78-6.58-15.34-9.38-23.2-2.81-7.86-4.86-16.1-4.69-24.45Z"></path><path class="cls-16" d="M221.39,131.46c-3.42,1.08-6.84,2.17-10.26,3.25-.17,8.34,1.88,16.59,4.69,24.45,1.83,5.13,3.99,10.13,6.1,15.15-.35-1.85-.53-3.73-.82-5.49-2.71-12.9,6.88-25.14,.3-37.36Z"></path></g><g><path class="cls-16" d="M208.21,188.05c.22-.5,.77-.78,1.31-.86,.54-.08,1.09,0,1.63,0,2.15,.02,4.25-1.09,6.37-.75,0,.92,.15,1.83,.04,2.74-.02,.17-.05,.33-.09,.5-.02,.47-.1,.93-.18,1.39-.04,.24-.09,.49-.23,.69-.18,.25-.49,.38-.79,.46-1.16,.31-2.45,.09-3.44-.58-.12-.08-.24-.17-.3-.3-.05-.09-.06-.19-.07-.29-.32-.13-.65-.26-.98-.36-.77-.22-1.1-.3-1.81-.68-.71-.38-1.78-1.22-1.46-1.96Z"></path><path class="cls-15" d="M212.35,187.68c-.17-.06-.38,.08-.42,.26-.04,.18,.05,.37,.19,.49,.14,.12,.31,.19,.49,.25,.77,.24,1.6,.28,2.41,.28,.49,0,.98-.03,1.43-.21s.86-.54,.98-1.01c.12-.47-.13-1.04-.6-1.17l-4.47,1.11Z"></path><path class="cls-19" d="M223.85,132.28l-.27-3.04c-4.19,1.92-8.99,3.98-13.54,4.68,0,9.95-.96,18.44-.66,27.57,.28,8.48,1.76,17.62,2.99,26.54,2.03,.5,3.45,.63,5.3-.71,.1-7.54,.54-13.4,.1-16.73-.44-3.31,1.14-11.5,2.13-14.73,3.09-10.12,6.05-11.66,3.95-23.58Z"></path><path class="cls-21" d="M214.62,160.16c.83-9.12,5.08-19,2.62-28.25,2.19-.82,4.33-1.77,6.33-2.68l.27,3.04c2.1,11.92-.86,13.46-3.95,23.58-.99,3.23-2.57,11.42-2.13,14.73,.44,3.33,0,9.19-.1,16.73-.87,.63-1.64,.93-2.43,1.02-.76-9.35-1.34-18.7-.61-28.18Z"></path><path class="cls-10" d="M213.42,187.77c-3.37-16.8-2.21-34.35-.64-50.81l-.34-.05c-1.27,16.74-2.57,34.01,.73,50.77,.13,.03,.12,.06,.25,.09Z"></path></g><path class="cls-16" d="M215.37,102.5c1.55-.28,3.07,.91,3.65,2.36,.58,1.46,.43,3.1,.14,4.64-.82,4.28-2.68,8.32-5.15,11.91-.98,1.42-2.06,2.78-3.4,3.87-3.37,2.75-7.9,3.49-12.2,4.12-.42-.93-.84-1.85-1.27-2.78,4.86-2.61,8.88-6.76,11.31-11.71,1.7-3.45,2.63-7.21,3.54-10.94l3.37-1.48Z"></path><polygon class="cls-16" points="191.82 133.9 200.47 133.9 196.93 119.48 188.28 119.48 191.82 133.9"></polygon><polygon class="cls-3" points="192.22 131.65 199.52 131.65 196.53 119.48 189.24 119.48 192.22 131.65"></polygon><path class="cls-23" d="M196.53,119.48l2.76,11.23c-2.34-2.74-5.02-4.8-8.49-4.87l-1.56-6.36h7.29Z"></path><g><path class="cls-13" d="M214.74,102.31c-.98-.61-1.77-1.51-2.23-2.56-3.51,.2-6.84,2.35-8.48,5.45,1.45-.55,2.89-1.09,4.34-1.64,1.82-.69,3.7-1.39,5.64-1.36l.73,.11Z"></path><path class="cls-22" d="M208.41,140.21c-.13-1.43,.47-4.56,.22-9.37-.11-3.87-.29-2.42-.38-3.62-.21-2.92-1.16-3.9-2.61-6.45-1.1-1.94-2.79-5.22-3.94-7.14-1.15-1.91-1.75-4.43-.6-6.34,.71-1.18,1.95-1.92,3.18-2.55,1.81-.93,3.69-1.72,5.62-2.36,2.16-.72,4.71-1.2,6.58,.1,1.25,.87,2.73,2.52,3.51,3.82,4.28,7.14,3.71,9.74,5.92,22.07,.18,1.01,3.49,8.02,3.99,10.25-1.08,.42-2.17,.77-3.28,1.06-.52-2.97-1.3-5.83-2.42-8.45,0,3.34,.95,5.66,.75,8.83-5.3,1.06-10.93,.82-16.54,.14Z"></path><path class="cls-13" d="M213.72,102.54c-2.42,.18-4.82,.67-7.12,1.46,2.02-1.35,4.42-2.12,6.85-2.18,.19,0,.38,0,.54,.09,.16,.1,.25,.32,.15,.47-.09,.13-.26,.15-.42,.16Z"></path><path class="cls-13" d="M214.98,102.1c1.46,.46,2.74,1.5,3.5,2.83l-3.5-2.83Z"></path><path class="cls-13" d="M203.37,106.64l1.93,2.66c-.24-1.1-.96-2.09-1.93-2.66Z"></path><path class="cls-13" d="M211.3,140.52c-.96-.09-1.93-.19-2.89-.31-.13-1.43,.47-4.56,.22-9.37-.11-3.87-.29-2.42-.38-3.62-.21-2.92-1.16-3.9-2.61-6.45-1.1-1.94-2.79-5.22-3.94-7.14-1.07-1.78-1.66-4.07-.81-5.92,11.76,6.25,11.63,20.08,10.42,32.8Z"></path></g><g><path class="cls-1" d="M195.71,108.27c-.68-.37-1.4-.66-2.15-.86,.37-.75,.54-1.59,.49-2.42-.03-.48-.1-1.02,.23-1.36,.19-.19,.46-.26,.72-.33,.6-.15,1.2-.3,1.8-.45,.59-.15,.77,.04,1.09-.48,.13-.21,.67-.82,.82-1.01,.15-.19,.56-.99,.96-.63,.18,.17-.23,.97-.33,1.19-.25,.58-.5,1.16-.75,1.74-.2,.46-.33,.78,.05,1.12,.13,.12,.44,.13,.59,.23,.15,.1,.1,.63,.04,.79-.04,.11-.14,.17-.23,.24l-3.34,2.24Z"></path><path class="cls-9" d="M192.95,107.49c.23-.44,.47-.87,.7-1.31,1.02-.03,2.04,.35,2.79,1.04,.12,.11,.24,.25,.23,.41,0,.08-.04,.16-.08,.24-.3,.59-.61,1.17-.91,1.76-.87-.91-1.68-1.39-2.92-1.64l.18-.49Z"></path><path class="cls-22" d="M189.19,125.09c-.8-.28-1.33-1.06-1.6-1.86-.51-1.5-.3-3.17,.2-4.68,.5-1.51,1.27-2.91,1.88-4.38,.84-1.99,1.4-4.11,2.38-6.04,.21-.41,.44-.88,.87-1.06,.54-.24,1.2,.04,1.86,.13,.46,.06,.87,.53,1.33,.74,.3,.14,.46,.47,.38,.8-.71,2.83-1.29,5.56-1.64,8.47-.18,1.54-.32,3.11-.88,4.56-.56,1.45-1.62,2.79-3.09,3.28-.54,.18-1.14,.23-1.68,.04Z"></path><path class="cls-13" d="M196.1,107.94c.3,.14,.46,.47,.38,.8-.71,2.83-1.29,5.56-1.64,8.47-.18,1.54-.32,3.11-.88,4.56-.56,1.45-1.62,2.79-3.09,3.28-.03,0-.05,.01-.08,.02,.38-6.1,2.07-12.12,4.46-17.67,.28,.17,.56,.41,.85,.55Z"></path><path class="cls-22" d="M205.84,112.11c-.32-2.07-1.51-3.98-3.21-5.19-.36-.25-.78-.48-1.21-.41-.35,.06-.63,.31-.88,.56-3.24,3.11-5.68,6.98-8.93,10.08-.89,.85-1.84,1.64-2.59,2.62-.74,.98-1.27,2.19-1.14,3.41,.13,1.22,1.05,2.4,2.27,2.55,.94,.11,1.84-.37,2.62-.91,1.38-.96,2.6-2.13,3.87-3.23,2.06-1.79,4.29-3.39,6.64-4.77,.74-.43,1.51-.87,2.01-1.56,.64-.89,.73-2.07,.56-3.15Z"></path><path class="cls-13" d="M190.79,117.83c-1.3,1.12-2.07,2.85-2.02,4.56-.28-.87-.23-1.84,.13-2.67,.37-.83,1.05-1.52,1.89-1.89Z"></path><path class="cls-13" d="M191.15,124.51c3.79-5.69,10.45-7.87,14.62-12.71,.02,.11,.05,.21,.07,.31,.17,1.08,.08,2.26-.56,3.15-.5,.69-1.27,1.13-2.01,1.56-2.35,1.39-4.58,2.98-6.64,4.77-1.27,1.1-2.49,2.27-3.87,3.23-.71,.49-1.52,.93-2.36,.92,.25-.4,.51-.81,.75-1.24Z"></path></g></g><path class="cls-13" d="M223.95,129.47c-.35-8.19-2.66-16.29-6.69-23.42,4.24,7.03,6.58,15.21,6.69,23.42Z"></path></g></svg>